<svg width="102" height="102" viewBox="0 0 102 102" fill="none" xmlns="http://www.w3.org/2000/svg">
<path d="M79.6875 3.1875C78.8062 3.1875 78.0938 3.89991 78.0938 4.78125V6.375V9.5625V15.9375C78.0938 16.8188 78.8062 17.5312 79.6875 17.5312C80.5688 17.5312 81.2812 16.8188 81.2812 15.9375V9.5625V6.375V4.78125C81.2812 3.89991 80.5688 3.1875 79.6875 3.1875Z" fill="#506C7F"/>
<path d="M22.3125 3.1875C21.4312 3.1875 20.7188 3.89991 20.7188 4.78125V6.375V9.5625V15.9375C20.7188 16.8188 21.4312 17.5312 22.3125 17.5312C23.1938 17.5312 23.9062 16.8188 23.9062 15.9375V9.5625V6.375V4.78125C23.9062 3.89991 23.1938 3.1875 22.3125 3.1875Z" fill="#506C7F"/>
<path d="M98.8125 95.625C98.8125 97.3845 97.3845 98.8125 95.625 98.8125H6.375C4.6155 98.8125 3.1875 97.3845 3.1875 95.625V27.0938H98.8125V95.625Z" fill="#F9EBB2"/>
<path d="M98.8125 23.9062H3.1875V12.75C3.1875 10.9905 4.6155 9.5625 6.375 9.5625H17.5312V15.9375C17.5312 18.5783 19.6717 20.7188 22.3125 20.7188C24.9533 20.7188 27.0938 18.5783 27.0938 15.9375V9.5625H74.9062V15.9375C74.9062 18.5783 77.0467 20.7188 79.6875 20.7188C82.3283 20.7188 84.4688 18.5783 84.4688 15.9375V9.5625H95.625C97.3845 9.5625 98.8125 10.9905 98.8125 12.75V23.9062Z" fill="#F76D57"/>
<path d="M17.5312 86.0625H27.0938C27.9751 86.0625 28.6875 85.3501 28.6875 84.4688V76.5C28.6875 75.6187 27.9751 74.9062 27.0938 74.9062H17.5312C16.6499 74.9062 15.9375 75.6187 15.9375 76.5V84.4688C15.9375 85.3501 16.6499 86.0625 17.5312 86.0625ZM19.125 78.0938H25.5V82.875H19.125V78.0938Z" fill="#394240"/>
<path d="M36.6562 86.0625H46.2188C47.1001 86.0625 47.8125 85.3501 47.8125 84.4688V76.5C47.8125 75.6187 47.1001 74.9062 46.2188 74.9062H36.6562C35.7749 74.9062 35.0625 75.6187 35.0625 76.5V84.4688C35.0625 85.3501 35.7749 86.0625 36.6562 86.0625ZM38.25 78.0938H44.625V82.875H38.25V78.0938Z" fill="#394240"/>
<path d="M55.7812 86.0625H65.3438C66.2251 86.0625 66.9375 85.3501 66.9375 84.4688V76.5C66.9375 75.6187 66.2251 74.9062 65.3438 74.9062H55.7812C54.8999 74.9062 54.1875 75.6187 54.1875 76.5V84.4688C54.1875 85.3501 54.8999 86.0625 55.7812 86.0625ZM57.375 78.0938H63.75V82.875H57.375V78.0938Z" fill="#394240"/>
<path d="M17.5312 68.5312H27.0938C27.9751 68.5312 28.6875 67.8188 28.6875 66.9375V58.9688C28.6875 58.0874 27.9751 57.375 27.0938 57.375H17.5312C16.6499 57.375 15.9375 58.0874 15.9375 58.9688V66.9375C15.9375 67.8188 16.6499 68.5312 17.5312 68.5312ZM19.125 60.5625H25.5V65.3438H19.125V60.5625Z" fill="#394240"/>
<path d="M36.6562 68.5312H46.2188C47.1001 68.5312 47.8125 67.8188 47.8125 66.9375V58.9688C47.8125 58.0874 47.1001 57.375 46.2188 57.375H36.6562C35.7749 57.375 35.0625 58.0874 35.0625 58.9688V66.9375C35.0625 67.8188 35.7749 68.5312 36.6562 68.5312ZM38.25 60.5625H44.625V65.3438H38.25V60.5625Z" fill="#394240"/>
<path d="M55.7812 68.5312H65.3438C66.2251 68.5312 66.9375 67.8188 66.9375 66.9375V58.9688C66.9375 58.0874 66.2251 57.375 65.3438 57.375H55.7812C54.8999 57.375 54.1875 58.0874 54.1875 58.9688V66.9375C54.1875 67.8188 54.8999 68.5312 55.7812 68.5312ZM57.375 60.5625H63.75V65.3438H57.375V60.5625Z" fill="#394240"/>
<path d="M74.9062 68.5312H84.4688C85.3501 68.5312 86.0625 67.8188 86.0625 66.9375V58.9688C86.0625 58.0874 85.3501 57.375 84.4688 57.375H74.9062C74.0249 57.375 73.3125 58.0874 73.3125 58.9688V66.9375C73.3125 67.8188 74.0249 68.5312 74.9062 68.5312ZM76.5 60.5625H82.875V65.3438H76.5V60.5625Z" fill="#394240"/>
<path d="M17.5312 51H27.0938C27.9751 51 28.6875 50.2876 28.6875 49.4062V41.4375C28.6875 40.5562 27.9751 39.8438 27.0938 39.8438H17.5312C16.6499 39.8438 15.9375 40.5562 15.9375 41.4375V49.4062C15.9375 50.2876 16.6499 51 17.5312 51ZM19.125 43.0312H25.5V47.8125H19.125V43.0312Z" fill="#394240"/>
<path d="M36.6562 51H46.2188C47.1001 51 47.8125 50.2876 47.8125 49.4062V41.4375C47.8125 40.5562 47.1001 39.8438 46.2188 39.8438H36.6562C35.7749 39.8438 35.0625 40.5562 35.0625 41.4375V49.4062C35.0625 50.2876 35.7749 51 36.6562 51ZM38.25 43.0312H44.625V47.8125H38.25V43.0312Z" fill="#394240"/>
<path d="M55.7812 51H65.3438C66.2251 51 66.9375 50.2876 66.9375 49.4062V41.4375C66.9375 40.5562 66.2251 39.8438 65.3438 39.8438H55.7812C54.8999 39.8438 54.1875 40.5562 54.1875 41.4375V49.4062C54.1875 50.2876 54.8999 51 55.7812 51ZM57.375 43.0312H63.75V47.8125H57.375V43.0312Z" fill="#394240"/>
<path d="M74.9062 51H84.4688C85.3501 51 86.0625 50.2876 86.0625 49.4062V41.4375C86.0625 40.5562 85.3501 39.8438 84.4688 39.8438H74.9062C74.0249 39.8438 73.3125 40.5562 73.3125 41.4375V49.4062C73.3125 50.2876 74.0249 51 74.9062 51ZM76.5 43.0312H82.875V47.8125H76.5V43.0312Z" fill="#394240"/>
<path d="M95.625 6.375H84.4688V4.78125C84.4688 2.14041 82.3283 0 79.6875 0C77.0467 0 74.9062 2.14041 74.9062 4.78125V6.375H27.0938V4.78125C27.0938 2.14041 24.9533 0 22.3125 0C19.6717 0 17.5312 2.14041 17.5312 4.78125V6.375H6.375C2.85122 6.375 0 9.22622 0 12.75V95.625C0 99.1488 2.85122 102 6.375 102H95.625C99.1488 102 102 99.1488 102 95.625V12.75C102 9.22622 99.1488 6.375 95.625 6.375ZM78.0938 4.78125C78.0938 3.89991 78.8062 3.1875 79.6875 3.1875C80.5688 3.1875 81.2812 3.89991 81.2812 4.78125V15.9375C81.2812 16.8188 80.5688 17.5312 79.6875 17.5312C78.8062 17.5312 78.0938 16.8188 78.0938 15.9375V4.78125ZM20.7188 4.78125C20.7188 3.89991 21.4312 3.1875 22.3125 3.1875C23.1938 3.1875 23.9062 3.89991 23.9062 4.78125V15.9375C23.9062 16.8188 23.1938 17.5312 22.3125 17.5312C21.4312 17.5312 20.7188 16.8188 20.7188 15.9375V4.78125ZM98.8125 95.625C98.8125 97.3845 97.3845 98.8125 95.625 98.8125H6.375C4.6155 98.8125 3.1875 97.3845 3.1875 95.625V27.0938H98.8125V95.625ZM98.8125 23.9062H3.1875V12.75C3.1875 10.9905 4.6155 9.5625 6.375 9.5625H17.5312V15.9375C17.5312 18.5783 19.6717 20.7188 22.3125 20.7188C24.9533 20.7188 27.0938 18.5783 27.0938 15.9375V9.5625H74.9062V15.9375C74.9062 18.5783 77.0467 20.7188 79.6875 20.7188C82.3283 20.7188 84.4688 18.5783 84.4688 15.9375V9.5625H95.625C97.3845 9.5625 98.8125 10.9905 98.8125 12.75V23.9062Z" fill="#394240"/>
<path d="M25.5 43.0312H19.125V47.8125H25.5V43.0312Z" fill="#B4CCB9"/>
<path d="M44.625 43.0312H38.25V47.8125H44.625V43.0312Z" fill="#B4CCB9"/>
<path d="M63.75 43.0312H57.375V47.8125H63.75V43.0312Z" fill="#B4CCB9"/>
<path d="M82.875 43.0312H76.5V47.8125H82.875V43.0312Z" fill="#B4CCB9"/>
<path d="M25.5 60.5625H19.125V65.3438H25.5V60.5625Z" fill="#B4CCB9"/>
<path d="M44.625 60.5625H38.25V65.3438H44.625V60.5625Z" fill="#B4CCB9"/>
<path d="M63.75 60.5625H57.375V65.3438H63.75V60.5625Z" fill="#B4CCB9"/>
<path d="M82.875 60.5625H76.5V65.3438H82.875V60.5625Z" fill="#B4CCB9"/>
<path d="M25.5 78.0938H19.125V82.875H25.5V78.0938Z" fill="#B4CCB9"/>
<path d="M44.625 78.0938H38.25V82.875H44.625V78.0938Z" fill="#B4CCB9"/>
<path d="M63.75 78.0938H57.375V82.875H63.75V78.0938Z" fill="#B4CCB9"/>
</svg>
