<svg width="36" height="36" viewBox="0 0 36 36" fill="none" xmlns="http://www.w3.org/2000/svg">
<path d="M28.125 1.125C27.8139 1.125 27.5625 1.37644 27.5625 1.6875V2.25V3.375V5.625C27.5625 5.93606 27.8139 6.1875 28.125 6.1875C28.4361 6.1875 28.6875 5.93606 28.6875 5.625V3.375V2.25V1.6875C28.6875 1.37644 28.4361 1.125 28.125 1.125Z" fill="#506C7F"/>
<path d="M7.875 1.125C7.56394 1.125 7.3125 1.37644 7.3125 1.6875V2.25V3.375V5.625C7.3125 5.93606 7.56394 6.1875 7.875 6.1875C8.18606 6.1875 8.4375 5.93606 8.4375 5.625V3.375V2.25V1.6875C8.4375 1.37644 8.18606 1.125 7.875 1.125Z" fill="#506C7F"/>
<path d="M34.875 33.75C34.875 34.371 34.371 34.875 33.75 34.875H2.25C1.629 34.875 1.125 34.371 1.125 33.75V9.5625H34.875V33.75Z" fill="#F9EBB2"/>
<path d="M34.875 8.4375H1.125V4.5C1.125 3.879 1.629 3.375 2.25 3.375H6.1875V5.625C6.1875 6.55706 6.94294 7.3125 7.875 7.3125C8.80706 7.3125 9.5625 6.55706 9.5625 5.625V3.375H26.4375V5.625C26.4375 6.55706 27.1929 7.3125 28.125 7.3125C29.0571 7.3125 29.8125 6.55706 29.8125 5.625V3.375H33.75C34.371 3.375 34.875 3.879 34.875 4.5V8.4375Z" fill="#F76D57"/>
<path d="M6.1875 30.375H9.5625C9.87356 30.375 10.125 30.1236 10.125 29.8125V27C10.125 26.6889 9.87356 26.4375 9.5625 26.4375H6.1875C5.87644 26.4375 5.625 26.6889 5.625 27V29.8125C5.625 30.1236 5.87644 30.375 6.1875 30.375ZM6.75 27.5625H9V29.25H6.75V27.5625Z" fill="#394240"/>
<path d="M12.9375 30.375H16.3125C16.6236 30.375 16.875 30.1236 16.875 29.8125V27C16.875 26.6889 16.6236 26.4375 16.3125 26.4375H12.9375C12.6264 26.4375 12.375 26.6889 12.375 27V29.8125C12.375 30.1236 12.6264 30.375 12.9375 30.375ZM13.5 27.5625H15.75V29.25H13.5V27.5625Z" fill="#394240"/>
<path d="M19.6875 30.375H23.0625C23.3736 30.375 23.625 30.1236 23.625 29.8125V27C23.625 26.6889 23.3736 26.4375 23.0625 26.4375H19.6875C19.3764 26.4375 19.125 26.6889 19.125 27V29.8125C19.125 30.1236 19.3764 30.375 19.6875 30.375ZM20.25 27.5625H22.5V29.25H20.25V27.5625Z" fill="#394240"/>
<path d="M6.1875 24.1875H9.5625C9.87356 24.1875 10.125 23.9361 10.125 23.625V20.8125C10.125 20.5014 9.87356 20.25 9.5625 20.25H6.1875C5.87644 20.25 5.625 20.5014 5.625 20.8125V23.625C5.625 23.9361 5.87644 24.1875 6.1875 24.1875ZM6.75 21.375H9V23.0625H6.75V21.375Z" fill="#394240"/>
<path d="M12.9375 24.1875H16.3125C16.6236 24.1875 16.875 23.9361 16.875 23.625V20.8125C16.875 20.5014 16.6236 20.25 16.3125 20.25H12.9375C12.6264 20.25 12.375 20.5014 12.375 20.8125V23.625C12.375 23.9361 12.6264 24.1875 12.9375 24.1875ZM13.5 21.375H15.75V23.0625H13.5V21.375Z" fill="#394240"/>
<path d="M19.6875 24.1875H23.0625C23.3736 24.1875 23.625 23.9361 23.625 23.625V20.8125C23.625 20.5014 23.3736 20.25 23.0625 20.25H19.6875C19.3764 20.25 19.125 20.5014 19.125 20.8125V23.625C19.125 23.9361 19.3764 24.1875 19.6875 24.1875ZM20.25 21.375H22.5V23.0625H20.25V21.375Z" fill="#394240"/>
<path d="M26.4375 24.1875H29.8125C30.1236 24.1875 30.375 23.9361 30.375 23.625V20.8125C30.375 20.5014 30.1236 20.25 29.8125 20.25H26.4375C26.1264 20.25 25.875 20.5014 25.875 20.8125V23.625C25.875 23.9361 26.1264 24.1875 26.4375 24.1875ZM27 21.375H29.25V23.0625H27V21.375Z" fill="#394240"/>
<path d="M6.1875 18H9.5625C9.87356 18 10.125 17.7486 10.125 17.4375V14.625C10.125 14.3139 9.87356 14.0625 9.5625 14.0625H6.1875C5.87644 14.0625 5.625 14.3139 5.625 14.625V17.4375C5.625 17.7486 5.87644 18 6.1875 18ZM6.75 15.1875H9V16.875H6.75V15.1875Z" fill="#394240"/>
<path d="M12.9375 18H16.3125C16.6236 18 16.875 17.7486 16.875 17.4375V14.625C16.875 14.3139 16.6236 14.0625 16.3125 14.0625H12.9375C12.6264 14.0625 12.375 14.3139 12.375 14.625V17.4375C12.375 17.7486 12.6264 18 12.9375 18ZM13.5 15.1875H15.75V16.875H13.5V15.1875Z" fill="#394240"/>
<path d="M19.6875 18H23.0625C23.3736 18 23.625 17.7486 23.625 17.4375V14.625C23.625 14.3139 23.3736 14.0625 23.0625 14.0625H19.6875C19.3764 14.0625 19.125 14.3139 19.125 14.625V17.4375C19.125 17.7486 19.3764 18 19.6875 18ZM20.25 15.1875H22.5V16.875H20.25V15.1875Z" fill="#394240"/>
<path d="M26.4375 18H29.8125C30.1236 18 30.375 17.7486 30.375 17.4375V14.625C30.375 14.3139 30.1236 14.0625 29.8125 14.0625H26.4375C26.1264 14.0625 25.875 14.3139 25.875 14.625V17.4375C25.875 17.7486 26.1264 18 26.4375 18ZM27 15.1875H29.25V16.875H27V15.1875Z" fill="#394240"/>
<path d="M33.75 2.25H29.8125V1.6875C29.8125 0.755438 29.0571 0 28.125 0C27.1929 0 26.4375 0.755438 26.4375 1.6875V2.25H9.5625V1.6875C9.5625 0.755438 8.80706 0 7.875 0C6.94294 0 6.1875 0.755438 6.1875 1.6875V2.25H2.25C1.00631 2.25 0 3.25631 0 4.5V33.75C0 34.9937 1.00631 36 2.25 36H33.75C34.9937 36 36 34.9937 36 33.75V4.5C36 3.25631 34.9937 2.25 33.75 2.25ZM27.5625 1.6875C27.5625 1.37644 27.8139 1.125 28.125 1.125C28.4361 1.125 28.6875 1.37644 28.6875 1.6875V5.625C28.6875 5.93606 28.4361 6.1875 28.125 6.1875C27.8139 6.1875 27.5625 5.93606 27.5625 5.625V1.6875ZM7.3125 1.6875C7.3125 1.37644 7.56394 1.125 7.875 1.125C8.18606 1.125 8.4375 1.37644 8.4375 1.6875V5.625C8.4375 5.93606 8.18606 6.1875 7.875 6.1875C7.56394 6.1875 7.3125 5.93606 7.3125 5.625V1.6875ZM34.875 33.75C34.875 34.371 34.371 34.875 33.75 34.875H2.25C1.629 34.875 1.125 34.371 1.125 33.75V9.5625H34.875V33.75ZM34.875 8.4375H1.125V4.5C1.125 3.879 1.629 3.375 2.25 3.375H6.1875V5.625C6.1875 6.55706 6.94294 7.3125 7.875 7.3125C8.80706 7.3125 9.5625 6.55706 9.5625 5.625V3.375H26.4375V5.625C26.4375 6.55706 27.1929 7.3125 28.125 7.3125C29.0571 7.3125 29.8125 6.55706 29.8125 5.625V3.375H33.75C34.371 3.375 34.875 3.879 34.875 4.5V8.4375Z" fill="#394240"/>
<path d="M9 15.1875H6.75V16.875H9V15.1875Z" fill="#B4CCB9"/>
<path d="M15.75 15.1875H13.5V16.875H15.75V15.1875Z" fill="#B4CCB9"/>
<path d="M22.5 15.1875H20.25V16.875H22.5V15.1875Z" fill="#B4CCB9"/>
<path d="M29.25 15.1875H27V16.875H29.25V15.1875Z" fill="#B4CCB9"/>
<path d="M9 21.375H6.75V23.0625H9V21.375Z" fill="#B4CCB9"/>
<path d="M15.75 21.375H13.5V23.0625H15.75V21.375Z" fill="#B4CCB9"/>
<path d="M22.5 21.375H20.25V23.0625H22.5V21.375Z" fill="#B4CCB9"/>
<path d="M29.25 21.375H27V23.0625H29.25V21.375Z" fill="#B4CCB9"/>
<path d="M9 27.5625H6.75V29.25H9V27.5625Z" fill="#B4CCB9"/>
<path d="M15.75 27.5625H13.5V29.25H15.75V27.5625Z" fill="#B4CCB9"/>
<path d="M22.5 27.5625H20.25V29.25H22.5V27.5625Z" fill="#B4CCB9"/>
</svg>
