<svg width="16" height="15" viewBox="0 0 16 15" fill="none" xmlns="http://www.w3.org/2000/svg">
<path fill-rule="evenodd" clip-rule="evenodd" d="M6.9125 13.0225L8 14.0125L9.0875 13.03L9.11711 13.0031C12.963 9.50818 15.5 7.20275 15.5 4.375C15.5 2.065 13.685 0.25 11.375 0.25C10.07 0.25 8.8175 0.8575 8 1.8175C7.1825 0.8575 5.93 0.25 4.625 0.25C2.315 0.25 0.5 2.065 0.5 4.375C0.5 7.20767 3.04582 9.51621 6.90299 13.0139L6.9125 13.0225ZM12.5808 7.50008C13.5976 6.25605 14 5.2998 14 4.375C14 2.89343 12.8566 1.75 11.375 1.75C10.5242 1.75 9.68414 2.1534 9.14203 2.79001L8 4.1311L6.85797 2.79001C6.31586 2.1534 5.47582 1.75 4.625 1.75C3.14343 1.75 2 2.89343 2 4.375C2 5.29977 2.40237 6.25596 3.41889 7.49875C4.54632 8.87715 5.87118 10.0678 7.19297 11.2557C7.46396 11.4992 7.73483 11.7426 8.00383 11.9875C8.21532 11.7965 8.42814 11.6056 8.64138 11.4144C10.0182 10.1798 11.4125 8.92941 12.5808 7.50008Z" fill="#004322"/>
</svg>
