<svg width="42" height="42" viewBox="0 0 42 42" fill="none" xmlns="http://www.w3.org/2000/svg">
<g clip-path="url(#clip0_650_859)">
<path d="M42.0006 42.0003V39.667C42.0006 37.8105 41.2632 36.03 39.9504 34.7172C38.6376 33.4045 36.8572 32.667 35.0007 32.667H16.334C14.4775 32.667 12.697 33.4045 11.3842 34.7172C10.0715 36.03 9.33398 37.8105 9.33398 39.667V42.0003H42.0006Z" fill="#77B255"/>
<path d="M25.6673 39.667C26.5622 39.667 31.5007 36.167 31.5007 32.667H19.834C19.834 36.167 24.7725 39.667 25.6673 39.667Z" fill="#3E721D"/>
<path d="M20.5801 32.7107C20.5801 36.0311 30.7534 36.1664 30.7534 32.7107V28.3369H20.5801V32.7107Z" fill="#F7DECE"/>
<path d="M20.5703 30.3013C21.989 31.9043 23.7483 32.3383 25.6616 32.3383C27.5738 32.3383 29.3331 31.9043 30.753 30.3013V26.2285H20.5703V30.3013Z" fill="#EEC2AD"/>
<path d="M29.3436 3.85028C27.0978 3.12345 22.4883 3.31361 21.1676 5.03095C18.9824 5.07295 19.3056 9.35928 15.2024 8.49245C14.3414 9.66378 13.7336 11.0568 13.5411 12.5478C13.0184 16.6019 13.8153 18.2341 14.2306 21.2814C14.7008 24.7348 16.6421 25.8396 18.1938 26.3016C20.4268 29.2521 22.8009 29.1261 26.7874 29.1261C34.5714 29.1261 37.6036 23.9251 37.9314 15.0794C38.0248 12.5629 37.3796 10.3346 36.0834 8.48895C31.6069 10.2273 32.3349 4.81861 29.3436 3.85028Z" fill="#292F33"/>
<path d="M34.4714 15.4505C33.7178 14.4075 32.7541 13.5675 30.6401 13.2711C31.4334 13.634 32.8264 15.8401 32.9256 16.5343C33.0247 17.2285 33.1239 17.7896 32.4963 17.0955C29.9821 14.3165 26.6104 14.46 23.8979 12.7625C22.0033 11.5771 21.4258 10.2646 21.4258 10.2646C21.4258 10.2646 21.1948 12.0146 18.3213 13.7985C17.4883 14.3153 16.4943 15.4668 15.9436 17.1678C15.5469 18.3905 15.6706 19.4801 15.6706 21.3421C15.6706 26.7788 20.1518 31.3498 25.6783 31.3498C31.2048 31.3498 35.6859 26.738 35.6859 21.3421C35.6836 17.9611 35.3301 16.6405 34.4714 15.4505Z" fill="#F7DECE"/>
<path d="M26.788 24.1228H24.5643C24.4167 24.1228 24.2752 24.0641 24.1708 23.9598C24.0664 23.8554 24.0078 23.7139 24.0078 23.5663C24.0078 23.4187 24.0664 23.2771 24.1708 23.1728C24.2752 23.0684 24.4167 23.0098 24.5643 23.0098H26.788C26.9356 23.0098 27.0771 23.0684 27.1815 23.1728C27.2858 23.2771 27.3445 23.4187 27.3445 23.5663C27.3445 23.7139 27.2858 23.8554 27.1815 23.9598C27.0771 24.0641 26.9356 24.1228 26.788 24.1228Z" fill="#C1694F"/>
<path d="M21.2271 20.231C20.9322 20.231 20.6494 20.1139 20.4409 19.9054C20.2324 19.6968 20.1152 19.4141 20.1152 19.1192V18.0073C20.1152 17.7125 20.2324 17.4297 20.4409 17.2212C20.6494 17.0126 20.9322 16.8955 21.2271 16.8955C21.5219 16.8955 21.8047 17.0126 22.0133 17.2212C22.2218 17.4297 22.3389 17.7125 22.3389 18.0073V19.1192C22.3389 19.4141 22.2218 19.6968 22.0133 19.9054C21.8047 20.1139 21.5219 20.231 21.2271 20.231ZM30.1241 20.231C29.8292 20.231 29.5464 20.1139 29.3379 19.9054C29.1294 19.6968 29.0122 19.4141 29.0122 19.1192V18.0073C29.0122 17.7125 29.1294 17.4297 29.3379 17.2212C29.5464 17.0126 29.8292 16.8955 30.1241 16.8955C30.4189 16.8955 30.7017 17.0126 30.9103 17.2212C31.1188 17.4297 31.2359 17.7125 31.2359 18.0073V19.1192C31.2359 19.4141 31.1188 19.6968 30.9103 19.9054C30.7017 20.1139 30.4189 20.231 30.1241 20.231Z" fill="#662113"/>
<path d="M25.8232 28.7661C22.6102 28.7661 21.6232 27.9436 21.4587 27.7768C21.3859 27.7077 21.3275 27.6249 21.2867 27.5333C21.2459 27.4416 21.2236 27.3427 21.221 27.2424C21.2157 27.0398 21.2912 26.8434 21.4307 26.6965C21.5703 26.5495 21.7625 26.464 21.9651 26.4587C22.1677 26.4535 22.3641 26.5289 22.511 26.6685C22.5717 26.7116 23.3522 27.2366 25.8232 27.2366C28.3899 27.2366 29.1319 26.6708 29.1389 26.665C29.2094 26.5951 29.2931 26.54 29.3852 26.503C29.4773 26.4659 29.5759 26.4477 29.6751 26.4493C29.7744 26.4509 29.8723 26.4724 29.9631 26.5125C30.054 26.5525 30.1359 26.6103 30.204 26.6825C30.3455 26.8308 30.423 27.0287 30.4199 27.2335C30.4169 27.4384 30.3335 27.6339 30.1877 27.778C30.022 27.9436 29.0362 28.7661 25.8232 28.7661Z" fill="#C1694F"/>
<path d="M15.166 32.667H18.666V42.0003H15.166V32.667ZM32.666 32.667H36.166V42.0003H32.666V32.667Z" fill="#3B88C3"/>
<path d="M15.3125 40.833H36.1667V41.9997H15.3125V40.833Z" fill="#3B88C3"/>
<path d="M35.0007 10.2667C35.0007 11.8067 31.3933 12.8333 25.6673 12.8333C19.9402 12.8333 16.334 11.8067 16.334 10.2667C16.334 6.1285 21.0007 0 22.5558 0C24.1122 0 25.1493 2.05333 25.6673 2.05333C26.1853 2.05333 27.2225 0 28.7788 0C30.334 0 35.0007 6.1285 35.0007 10.2667Z" fill="#C1694F"/>
<path d="M41.9303 9.3332C41.9303 11.2664 37.847 16.3332 25.597 16.3332C13.347 16.3332 9.26367 11.2664 9.26367 9.3332C9.26367 7.40003 17.2203 8.16653 25.597 8.16653C33.9737 8.16653 41.9303 7.40003 41.9303 9.3332Z" fill="#C1694F"/>
<path d="M35.0007 10.267C35.0007 11.807 31.3933 12.8337 25.6673 12.8337C19.9402 12.8337 16.334 11.807 16.334 10.267C16.334 9.60666 16.453 8.89616 16.6595 8.16699C19.4455 10.5003 31.8892 10.5003 34.6763 8.17166C34.8805 8.89849 35.0007 9.60783 35.0007 10.267Z" fill="#292F33"/>
<path d="M8.16667 37.0413C8.16667 36.6546 8.01302 36.2836 7.73953 36.0101C7.46604 35.7367 7.09511 35.583 6.70833 35.583C6.32156 35.583 5.95063 35.7367 5.67714 36.0101C5.40365 36.2836 5.25 36.6546 5.25 37.0413V41.9997H8.16667V37.0413Z" fill="#C1694F"/>
<path d="M11.6702 26.5422C11.6702 29.2838 9.44883 31.504 6.70833 31.504C3.96783 31.504 1.7465 29.2838 1.7465 26.5422C1.7465 26.4418 0 26.4442 0 26.5422C0 28.3213 0.706769 30.0276 1.96483 31.2857C3.22288 32.5437 4.92917 33.2505 6.70833 33.2505C8.48749 33.2505 10.1938 32.5437 11.4518 31.2857C12.7099 30.0276 13.4167 28.3213 13.4167 26.5422C13.4167 26.4442 11.6702 26.4418 11.6702 26.5422Z" fill="#66757F"/>
<path d="M1.75 26.5417C1.75 26.7737 1.65781 26.9963 1.49372 27.1604C1.32962 27.3245 1.10706 27.4167 0.875 27.4167C0.642936 27.4167 0.420376 27.3245 0.256282 27.1604C0.0921872 26.9963 0 26.7737 0 26.5417L0 16.625C0 16.3929 0.0921872 16.1704 0.256282 16.0063C0.420376 15.8422 0.642936 15.75 0.875 15.75C1.10706 15.75 1.32962 15.8422 1.49372 16.0063C1.65781 16.1704 1.75 16.3929 1.75 16.625V26.5417ZM13.4167 26.5417C13.4167 26.7737 13.3245 26.9963 13.1604 27.1604C12.9963 27.3245 12.7737 27.4167 12.5417 27.4167C12.3096 27.4167 12.087 27.3245 11.9229 27.1604C11.7589 26.9963 11.6667 26.7737 11.6667 26.5417V16.625C11.6667 16.3929 11.7589 16.1704 11.9229 16.0063C12.087 15.8422 12.3096 15.75 12.5417 15.75C12.7737 15.75 12.9963 15.8422 13.1604 16.0063C13.3245 16.1704 13.4167 16.3929 13.4167 16.625V26.5417ZM7.58333 36.1667C7.58333 36.3987 7.49115 36.6213 7.32705 36.7854C7.16296 36.9495 6.9404 37.0417 6.70833 37.0417C6.47627 37.0417 6.25371 36.9495 6.08961 36.7854C5.92552 36.6213 5.83333 36.3987 5.83333 36.1667V16.625C5.83333 16.3929 5.92552 16.1704 6.08961 16.0063C6.25371 15.8422 6.47627 15.75 6.70833 15.75C6.9404 15.75 7.16296 15.8422 7.32705 16.0063C7.49115 16.1704 7.58333 16.3929 7.58333 16.625V36.1667Z" fill="#66757F"/>
</g>
<defs>
<clipPath id="clip0_650_859">
<rect width="42" height="42" fill="white"/>
</clipPath>
</defs>
</svg>
