<svg width="38" height="38" viewBox="0 0 38 38" fill="none" xmlns="http://www.w3.org/2000/svg">
<path d="M24.4575 19.3662H28.3326C29.3706 19.3662 30.227 20.141 30.2789 21.1272L30.9666 34.2001C31.0723 36.2141 29.3836 37.9028 27.263 37.9028C25.1424 37.9028 23.4537 36.2141 23.5594 34.2001L24.4575 19.3662Z" fill="#546A79"/>
<path d="M11.512 10.0974V1.75593C11.512 1.51012 11.6097 1.27438 11.7835 1.10056C11.9573 0.926749 12.193 0.829102 12.4388 0.829102C12.6846 0.829102 12.9204 0.926749 13.0942 1.10056C13.268 1.27438 13.3657 1.51012 13.3657 1.75593V10.0974C13.3657 10.3432 13.268 10.5789 13.0942 10.7528C12.9204 10.9266 12.6846 11.0242 12.4388 11.0242C12.193 11.0242 11.9573 10.9266 11.7835 10.7528C11.6097 10.5789 11.512 10.3432 11.512 10.0974ZM15.2193 10.0974V1.75593C15.2193 1.51012 15.317 1.27438 15.4908 1.10056C15.6646 0.926749 15.9003 0.829102 16.1462 0.829102C16.392 0.829102 16.6277 0.926749 16.8015 1.10056C16.9753 1.27438 17.073 1.51012 17.073 1.75593V10.0974C17.073 10.3432 16.9753 10.5789 16.8015 10.7528C16.6277 10.9266 16.392 11.0242 16.1462 11.0242C15.9003 11.0242 15.6646 10.9266 15.4908 10.7528C15.317 10.5789 15.2193 10.3432 15.2193 10.0974ZM8.73152 0.829102C8.97733 0.829102 9.21307 0.926749 9.38688 1.10056C9.5607 1.27438 9.65835 1.51012 9.65835 1.75593V10.0974C9.65835 11.6044 11.7808 12.8779 14.2925 12.8779C16.8042 12.8779 18.9266 11.6044 18.9266 10.0974V1.75593C18.9266 1.51012 19.0243 1.27438 19.1981 1.10056C19.3719 0.926749 19.6077 0.829102 19.8535 0.829102C20.0993 0.829102 20.335 0.926749 20.5088 1.10056C20.6827 1.27438 20.7803 1.51012 20.7803 1.75593V10.0974C20.7803 12.2337 18.8525 13.9864 16.1462 14.5434V20.2925H12.4388V14.5434C9.73249 13.9864 7.80469 12.2337 7.80469 10.0974V1.75593C7.80469 1.51012 7.90234 1.27438 8.07615 1.10056C8.24996 0.926749 8.48571 0.829102 8.73152 0.829102Z" fill="#C7C7C7"/>
<path d="M13.2169 19.3662H15.356C16.394 19.3662 17.2504 20.141 17.3023 21.1272L17.9891 34.2001C18.0957 36.2141 16.407 37.9028 14.2864 37.9028C12.1659 37.9028 10.4772 36.2141 10.5828 34.2001L11.2705 21.1272C11.3224 20.141 12.1779 19.3662 13.2169 19.3662Z" fill="#546A79"/>
<path d="M25.4132 0.829102H27.2668C28.2501 0.829102 29.193 1.21969 29.8883 1.91495C30.5835 2.61021 30.9741 3.55318 30.9741 4.53642V15.6584C30.9741 16.6416 30.5835 17.5846 29.8883 18.2798C29.193 18.9751 28.2501 19.3657 27.2668 19.3657H24.4863V1.75593C24.4863 1.51012 24.584 1.27438 24.7578 1.10056C24.9316 0.926749 25.1673 0.829102 25.4132 0.829102Z" fill="#C7C7C7"/>
</svg>
