<svg width="32" height="32" viewBox="0 0 32 32" fill="none" xmlns="http://www.w3.org/2000/svg">
<g clip-path="url(#clip0_650_852)">
<path d="M24.2492 19.2C20.2492 19.2 19.1992 15.9 19.1992 15.9C19.1992 15.9 20.2492 11.75 24.2492 11.75C26.9992 11.75 31.4992 15.5 31.4992 15.5C31.4992 15.5 26.9992 19.2 24.2492 19.2Z" fill="#83BF4F"/>
<path d="M9 3.35C12.15 6.55 10.3 10.15 10.3 10.15C10.3 10.15 6.45 12.35 3.3 9.15C1.15 6.95 0.5 0.5 0.5 0.5C0.5 0.5 6.85 1.15 9 3.35Z" fill="#83BF4F"/>
<path d="M31.5004 15.5004C29.0004 15.0004 26.4504 14.7004 23.9504 15.0004C21.5004 15.2504 19.0004 16.1504 17.3504 17.8504C16.5004 18.7004 15.9004 19.7004 15.6004 20.8004C15.5504 21.0504 15.5004 21.3504 15.4504 21.6004C15.4004 21.9004 15.4504 22.1004 15.4504 22.4504L15.5504 24.3504L15.9004 32.0004H13.4004L13.8004 24.3504L13.9004 22.4504C13.9004 22.1504 13.9504 21.7504 14.0004 21.4004C14.0504 21.0504 14.1504 20.7004 14.2504 20.3504C14.7004 19.0004 15.5504 17.8504 16.6004 17.0004C17.6504 16.1004 18.8504 15.5004 20.1004 15.0504C21.3504 14.6504 22.6504 14.4504 23.9504 14.4004C26.5004 14.3004 29.0504 14.8004 31.5004 15.5004Z" fill="#75A843"/>
<path d="M0.5 0.5C3.1 2.1 5.5 4.1 7.6 6.35C9.7 8.6 11.6 11.05 13.15 13.75C13.9 15.1 14.65 16.5 15.1 18.1C15.2 18.5 15.3 18.9 15.35 19.35L15.4 20.55L15.5 22.85L15.9 32H13.4L13.8 22.8L13.9 20.5L13.95 19.95V19.4C13.95 19.1 13.9 18.75 13.8 18.4C13.5 17 12.9 15.6 12.2 14.25C10.85 11.55 9.1 9.05 7.15 6.7C5.25 4.35 3.05 2.25 0.5 0.5Z" fill="#75A843"/>
</g>
<defs>
<clipPath id="clip0_650_852">
<rect width="32" height="32" fill="white"/>
</clipPath>
</defs>
</svg>
