<svg width="32" height="32" viewBox="0 0 32 32" fill="none" xmlns="http://www.w3.org/2000/svg">
<g clip-path="url(#clip0_650_836)">
<path d="M5.56509 0V11.0191C8.40347 12.9878 13.0643 13.0574 15.9999 11.0331C16.0626 10.9913 16.132 10.9496 16.1947 10.9009C16.7095 10.5183 17.3703 10.4348 17.8295 10.4348H20.5217C21.8643 10.4348 22.9983 9.57919 23.4435 8.39656L26.6575 11.6035C27.8748 12.8279 29.8643 12.8279 31.0817 11.6035C32.3061 10.3861 32.3061 8.39656 31.0817 7.17912L24.8208 0.91825C24.2365 0.333938 23.4294 0 22.6086 0H5.56509Z" fill="#F1CD99"/>
<path d="M5.56519 0V11.0191C8.40356 12.9878 13.0644 13.0574 16 11.0331V0H5.56519Z" fill="#F0C78D"/>
<path d="M1.0435 20.5215H2.78956C5.89219 20.5215 9.0435 21.572 12.1531 23.645C13.2035 24.3476 14.6017 24.6954 16 24.6954C17.3982 24.6954 18.7965 24.3476 19.8469 23.645C22.9565 21.5719 26.1078 20.5215 29.2104 20.5215H30.9565C31.534 20.5215 32 20.9876 32 21.565V30.9563C32 31.5337 31.534 31.9998 30.9565 31.9998H1.04344C0.466 31.9998 -6.10352e-05 31.5337 -6.10352e-05 30.9563V21.565C1.90735e-06 20.9876 0.466002 20.5215 1.0435 20.5215Z" fill="#91867E"/>
<path d="M15.9995 16.6954C15.4232 16.6954 14.956 16.2282 14.956 15.6519C14.956 15.0756 15.4232 14.6084 15.9995 14.6084C16.5758 14.6084 17.043 15.0756 17.043 15.6519C17.043 16.2282 16.5758 16.6954 15.9995 16.6954Z" fill="#7CCC92"/>
<path d="M11.8256 16.6954C11.2493 16.6954 10.7821 16.2282 10.7821 15.6519C10.7821 15.0756 11.2493 14.6084 11.8256 14.6084C12.402 14.6084 12.8691 15.0756 12.8691 15.6519C12.8691 16.2282 12.402 16.6954 11.8256 16.6954Z" fill="#34B772"/>
<path d="M13.9135 20.8692C13.3372 20.8692 12.87 20.402 12.87 19.8257C12.87 19.2494 13.3372 18.7822 13.9135 18.7822C14.4898 18.7822 14.957 19.2494 14.957 19.8257C14.957 20.402 14.4898 20.8692 13.9135 20.8692Z" fill="#34B772"/>
<path d="M20.1733 16.6954C19.597 16.6954 19.1298 16.2282 19.1298 15.6519C19.1298 15.0756 19.597 14.6084 20.1733 14.6084C20.7496 14.6084 21.2168 15.0756 21.2168 15.6519C21.2168 16.2282 20.7496 16.6954 20.1733 16.6954Z" fill="#7CCC92"/>
<path d="M18.0854 20.8692C17.5091 20.8692 17.0419 20.402 17.0419 19.8257C17.0419 19.2494 17.5091 18.7822 18.0854 18.7822C18.6617 18.7822 19.1289 19.2494 19.1289 19.8257C19.1289 20.402 18.6617 20.8692 18.0854 20.8692Z" fill="#7CCC92"/>
<path d="M0.000781059 1.0435V13.5653C0.000781059 14.1417 0.46822 14.6088 1.04428 14.6088H5.21822C5.79428 14.6088 6.26172 14.1417 6.26172 13.5653V1.0435C6.26166 0.467062 5.79422 0 5.21816 0H1.04422C0.468219 0 0.000781059 0.467062 0.000781059 1.0435Z" fill="#FF0C38"/>
<path d="M0 21.565V30.9563C0 31.5337 0.466001 31.9998 1.0435 31.9998H16V24.6954C14.6018 24.6954 13.2035 24.3476 12.1531 23.645C9.0435 21.5719 5.89219 20.5215 2.78956 20.5215H1.0435C0.466001 20.5215 0 20.9876 0 21.565Z" fill="#847976"/>
<path d="M14.9565 15.6519C14.9565 15.0756 15.4237 14.6084 16 14.6084V16.6953C15.4237 16.6953 14.9565 16.2281 14.9565 15.6519Z" fill="#34B772"/>
<path d="M22.6079 2.08691C22.8792 2.08691 23.1505 2.19823 23.3454 2.39298L29.6062 8.65391C30.0167 9.06435 30.0167 9.71829 29.6062 10.1287C29.2027 10.5392 28.5349 10.5392 28.1314 10.1287L22.4827 4.48004C22.2879 4.28523 22.0235 4.17398 21.7453 4.17398H12.1731C11.5957 4.17398 11.1296 4.64004 11.1296 5.21748C11.1296 5.79491 11.5956 6.26098 12.1731 6.26098H20.521C21.0984 6.26098 21.5645 6.72704 21.5645 7.30448C21.5645 7.88191 21.0985 8.34798 20.521 8.34798H17.8288C17.1679 8.34798 16.5557 8.45235 15.9992 8.66104C15.6166 8.80016 15.2618 8.98798 14.9488 9.21754C12.6114 10.9497 8.42355 10.7967 6.26011 8.93235V2.08691H22.6079Z" fill="#F5DDB3"/>
<path d="M6.26088 2.08691V8.9321C8.42438 10.7965 12.6122 10.9495 14.9496 9.21729C15.2626 8.98773 15.6174 8.79991 16 8.66079V6.26079H12.1739C11.5965 6.26079 11.1304 5.79473 11.1304 5.21729C11.1304 4.63985 11.5964 4.17379 12.1739 4.17379H16V2.08691H6.26088Z" fill="#F3D3A6"/>
</g>
<defs>
<clipPath id="clip0_650_836">
<rect width="32" height="32" fill="white" transform="matrix(-1 0 0 1 32 0)"/>
</clipPath>
</defs>
</svg>
