<svg width="724" height="810" viewBox="0 0 724 810" fill="none" xmlns="http://www.w3.org/2000/svg">
<path d="M805.899 0.34375C765.276 45.7882 728.859 90.3844 692.355 134.972C363.849 29.2115 199.934 18.9969 174.961 67.7373C385.602 135.581 509.344 244.072 679.448 150.621C634.436 205.325 588.263 260.189 532.569 316.546C273.097 182.033 62.8533 335.394 79.2829 328.201C220.493 373.946 365.563 388.932 519.991 329.182C471.137 377.509 419.388 422.69 365.044 464.464C246.955 429.278 138.968 425.011 46.9083 469.501C24.0471 464.818 219.454 527.731 335.093 487.094C298.737 514.017 258.918 541.533 214.953 569.774C124.616 538.706 61.0267 526.75 11.4003 544.405C3.98182 543.38 96.8292 607.425 179.921 591.855C162.297 602.765 144.023 613.793 125.101 624.938C84.9787 635.055 98.318 582.401 0 700.735C94.3534 692.552 105.234 694.346 134.008 639.924C160.738 624.196 186.171 608.685 210.304 593.393C167.135 646.198 207.837 706.655 208.079 764.868C214.658 784.307 251.283 644.696 227.123 582.639C274.352 552.225 316.785 522.615 355.349 493.659C293.214 571.02 318.837 729.161 323.831 750.323C367.113 663.729 386.581 616.013 374.678 478.938C426.804 438.871 476.582 395.718 523.757 349.7C481.341 438.503 475.005 594.577 481.228 768.72C488.837 769.136 625.416 431.284 546.194 327.388C599.802 272.993 644.642 220.144 687.94 167.604C603.446 385.681 668.178 843.368 691.316 807.803C745.894 586.35 812.772 367.425 705.417 146.406C745.236 97.8687 784.614 49.4906 829.263 0.34375L805.899 0.34375ZM323.909 750.332C323.727 750.765 323.52 751.119 323.338 751.552C323.658 753.725 323.823 753.107 323.909 750.332Z" fill="#004322"/>
</svg>
