<svg width="1123" height="1135" viewBox="0 0 1123 1135" fill="none" xmlns="http://www.w3.org/2000/svg">
<path d="M538.863 14.0608C548.254 -4.68695 574.748 -4.6869 584.137 14.0608L631.468 108.548C638.907 123.392 658.141 127.26 670.636 116.421L750.141 47.4334C765.914 33.7451 790.387 43.9913 791.966 64.9445L799.918 170.546C801.167 187.136 817.476 198.15 833.123 192.967L932.694 159.981C952.452 153.436 971.184 172.369 964.708 192.337L932.073 292.976C926.943 308.787 937.842 325.27 954.259 326.533L1058.74 334.57C1079.47 336.165 1089.61 360.902 1076.07 376.845L1007.81 457.2C997.087 469.824 1000.91 489.268 1015.6 496.784L1109.09 544.621C1127.63 554.113 1127.63 580.89 1109.09 590.379L1015.6 638.216C1000.91 645.734 997.087 665.173 1007.81 677.802L1076.07 758.157C1089.61 774.099 1079.48 798.833 1058.74 800.429L954.259 808.466C937.842 809.728 926.943 826.211 932.073 842.026L964.708 942.661C971.184 962.63 952.452 981.562 932.694 975.017L833.123 942.033C817.476 936.848 801.167 947.863 799.918 964.456L791.966 1070.06C790.387 1091.01 765.914 1101.26 750.141 1087.57L670.636 1018.58C658.141 1007.74 638.907 1011.61 631.468 1026.45L584.137 1120.94C574.748 1139.68 548.254 1139.68 538.863 1120.94L491.531 1026.45C484.095 1011.61 464.857 1007.74 452.366 1018.58L372.861 1087.57C357.086 1101.26 332.611 1091.01 331.033 1070.06L323.081 964.456C321.831 947.863 305.522 936.848 289.878 942.033L190.303 975.017C170.547 981.562 151.814 962.63 158.29 942.661L190.927 842.026C196.055 826.211 185.158 809.728 168.742 808.466L64.2573 800.429C43.5261 798.833 33.3884 774.099 46.9319 758.157L115.19 677.802C125.915 665.173 122.088 645.734 107.4 638.216L13.9121 590.379C-4.6374 580.89 -4.63735 554.113 13.9121 544.621L107.4 496.784C122.088 489.268 125.915 469.824 115.19 457.2L46.9319 376.845C33.3884 360.902 43.5262 336.165 64.2578 334.57L168.742 326.533C185.158 325.27 196.055 308.787 190.927 292.976L158.29 192.337C151.814 172.369 170.547 153.436 190.303 159.981L289.878 192.967C305.522 198.15 321.831 187.136 323.081 170.546L331.033 64.9445C332.611 43.9913 357.086 33.7452 372.861 47.4334L452.366 116.421C464.857 127.26 484.095 123.392 491.531 108.548L538.863 14.0608Z" fill="#FFD741"/>
</svg>
