<svg width="1396" height="1122" viewBox="0 0 1396 1122" fill="none" xmlns="http://www.w3.org/2000/svg">
<path d="M1113.45 179.951C1119.72 232.256 1089.44 291.852 1066.2 348.339C987.886 538.439 984.099 722.964 1037.95 883.127C1033.13 878.355 1028.32 873.589 1023.52 868.829C979.15 824.698 934.026 780.412 877.766 748.962C865.944 742.367 853.596 736.504 841.062 730.917C841.843 669.8 846.015 528.526 867.636 465.686C878.512 434.107 892.244 402.416 898.066 371.035C904.113 338.398 901.344 307.437 898.554 276.896C895.283 240.91 891.964 204.824 883.468 171.065C865.163 99.4824 823.989 40.5219 764.552 0.780298C763.806 0.280918 762.856 0.0475113 761.814 0.107161C760.771 0.166811 759.677 0.51701 758.66 1.1173C757.643 1.71759 756.743 2.54315 756.066 3.49858C755.388 4.45401 754.96 5.50014 754.832 6.51548L739.309 129.183C734.472 167.389 729.549 205.984 715.918 244.8C707.47 268.924 695.723 292.875 688.148 316.997C656.727 416.742 699.083 501.914 740.669 577.593L819.822 721.635C808.903 716.919 797.983 712.202 787.286 707.162C757.487 693.16 730.546 675.319 706.98 653.983C659.522 610.918 624.641 556.512 591.725 501.508C587.549 494.545 583.397 487.565 579.269 480.569C578.92 479.97 578.426 479.48 577.816 479.128C537.279 288.948 428.969 129.718 271.288 29.031C253.523 107.947 290.478 172.314 326.478 230.317C344.879 259.977 363.277 289.626 381.671 319.263C416.152 374.836 452.073 431.79 511.092 463.397C532.581 474.899 557.32 483.247 574.759 498.946C603.584 547.529 633.264 595.868 671.196 637.258L668.649 636.055C559.267 611.392 432.58 625.385 307.699 659.092C182.819 692.799 58.7127 745.616 -64.3623 799.769C39.7393 793.599 127.112 833.911 228.248 837.872C285.623 840.117 346.288 830.642 406.53 821.15C422.702 818.598 439.333 815.904 455.145 807.846C468.712 800.931 480.803 790.501 492.748 780.528C546.538 735.645 603.895 695.579 663.675 661.131L681.326 647.968C703.02 670.03 727.457 689.669 755.041 705.326C778.707 718.698 804.653 728.874 829.913 740.022C830.28 740.562 830.79 740.984 831.409 741.261C832.029 741.537 832.745 741.662 833.51 741.627C837.851 743.572 842.17 745.536 846.444 747.538C890.252 768.312 927.412 796.869 961.938 828.173C929.231 828.545 889.39 855.68 852.92 867.14C826.35 875.474 799.677 875.568 773.407 886.737C744.547 899.035 720.064 922.909 693.177 941.026C606.979 999.093 506.663 992.065 414.528 1033.81C372.477 1052.85 333.524 1081.45 295.192 1109.69C305.52 1118.98 322.546 1119.5 338.566 1119.69C400.986 1120.38 463.387 1121.07 525.77 1121.77C549.498 1122.04 574.563 1122.02 598.886 1110.15C623.209 1098.29 642.603 1076.67 663.41 1058.2C741.308 989.067 929.1 864.218 971.123 836.511C981.041 845.644 990.647 855.063 1000.22 864.512C1023.09 887.078 1045.57 910.035 1069.24 931.847C1092.01 952.826 1115.35 975.747 1146.65 986.607C1174.98 996.413 1208.83 994.489 1242.29 989.861C1280.92 984.494 1319.85 977.479 1358.61 971.176L1388.54 966.297C1396.2 965.048 1398.77 953.528 1391.09 954.744C1351.3 961.222 1311.51 967.696 1271.72 974.168C1238.26 979.608 1203.77 985.132 1172.97 980.343C1139.12 975.072 1115.32 954.971 1092.52 934.936C1076.85 921.115 1061.81 906.675 1046.95 892.064C1061.41 845.028 1101.45 802.496 1132.48 758.595C1209.23 649.992 1232.49 519.057 1191.86 424.841C1166.35 365.679 1117.06 317.428 1120.94 246.064C1122.24 222.37 1128.75 194.378 1113.45 179.951Z" fill="#FFD741"/>
</svg>
