<svg width="1329" height="1322" viewBox="0 0 1329 1322" fill="none" xmlns="http://www.w3.org/2000/svg">
<mask id="mask0_697_865" style="mask-type:luminance" maskUnits="userSpaceOnUse" x="0" y="0" width="1329" height="1322">
<path d="M1329 0H0V1322H1329V0Z" fill="white"/>
</mask>
<g mask="url(#mask0_697_865)">
<path d="M664.5 0L769.411 271.529L996.75 88.5572L951.125 375.888L1239.97 330.5L1056.03 556.642L1329 661L1056.03 765.358L1239.97 991.5L951.125 946.115L996.75 1233.44L769.411 1050.47L664.5 1322L559.589 1050.47L332.25 1233.44L377.878 946.115L89.0261 991.5L272.967 765.358L0 661L272.967 556.642L89.0261 330.5L377.878 375.888L332.25 88.5572L559.589 271.529L664.5 0Z" fill="#F8E7C2"/>
</g>
</svg>
