<svg width="1090" height="924" viewBox="0 0 1090 924" fill="none" xmlns="http://www.w3.org/2000/svg">
<path d="M185.862 48.8451C506.214 -8.18659 779.217 66.7233 1016.16 242.077C1016.82 242.565 1017.29 243.172 1017.52 243.832C1017.75 244.491 1017.72 245.176 1017.45 245.807C1017.18 246.439 1016.67 246.992 1015.98 247.404C1015.29 247.816 1014.45 248.07 1013.55 248.138C895.771 257.385 789.572 245.203 698.464 205.098C852.875 292.049 976.844 400.726 1050.99 544.757C1051.25 545.277 1051.36 545.829 1051.3 546.372C1051.24 546.915 1051.01 547.433 1050.63 547.889C1050.25 548.345 1049.73 548.725 1049.12 549.002C1048.5 549.278 1047.79 549.444 1047.06 549.485C876.251 559.029 743.923 511.389 630.337 435.885C769.19 551.459 855.524 676.452 870.098 814.328C870.154 814.958 869.988 815.579 869.614 816.13C869.24 816.681 868.673 817.142 867.968 817.467C867.263 817.793 866.446 817.971 865.599 817.983C864.751 817.996 863.903 817.844 863.139 817.541C722.772 760.476 610.38 690.477 528.16 606.552C561.819 718.652 539.508 806.623 477.699 877.708C477.293 878.163 476.745 878.537 476.099 878.8C475.452 879.063 474.724 879.207 473.973 879.222C473.221 879.238 472.466 879.123 471.768 878.887C471.069 878.651 470.446 878.301 469.947 877.864C325.003 752.04 238.25 622.84 235.45 488.756L131.285 627.197C130.854 627.77 130.21 628.234 129.424 628.536C128.639 628.839 127.744 628.969 126.84 628.911C125.936 628.853 125.059 628.609 124.309 628.207C123.559 627.805 122.964 627.262 122.593 626.637C2.029 423.619 16.1991 237.037 154.796 65.6336C161.651 57.1746 172.776 51.1625 185.862 48.8451Z" fill="#8E80E5"/>
</svg>
