<svg width="36" height="36" viewBox="0 0 36 36" fill="none" xmlns="http://www.w3.org/2000/svg">
<g clip-path="url(#clip0_652_896)">
<path d="M17.9993 35.4377C13.5254 35.4377 9.31927 33.6955 6.1557 30.532C2.9922 27.3684 1.25 23.1624 1.25 18.6884C1.25 15.3721 2.21785 12.1655 4.04914 9.41568C4.56523 8.64055 5.61205 8.4306 6.38724 8.94677C7.16237 9.46286 7.37225 10.5097 6.85609 11.2849C5.39478 13.4793 4.6224 16.0393 4.6224 18.6884C4.6224 26.0645 10.6233 32.0654 17.9994 32.0654C25.3754 32.0654 31.3763 26.0645 31.3763 18.6884C31.3763 16.1174 30.6456 13.6211 29.2633 11.4693C27.9157 9.37159 26.0183 7.69443 23.7757 6.61907C22.9361 6.21632 22.5818 5.20923 22.9844 4.36956C23.3872 3.52982 24.3941 3.17559 25.234 3.57834C28.0405 4.92426 30.4151 7.02259 32.1007 9.64666C33.833 12.3434 34.7487 15.4699 34.7487 18.6884C34.7487 23.1623 33.0065 27.3684 29.8429 30.532C26.6792 33.6955 22.4732 35.4377 17.9993 35.4377Z" fill="#4A5058"/>
<path opacity="0.15" d="M23.7757 6.61969C26.0183 7.69519 27.9158 9.37228 29.2633 11.4699C30.6456 13.6217 31.3763 16.1181 31.3763 18.689C31.3763 22.1837 30.0287 25.3691 27.8266 27.7544C30.476 25.3087 32.1381 21.8086 32.1381 17.9272C32.1381 15.3562 31.4075 12.8599 30.0252 10.7081C28.6776 8.61037 26.7801 6.93321 24.5376 5.85785C23.6979 5.45517 23.3436 4.44802 23.7463 3.60834C23.7494 3.60173 23.753 3.59548 23.7562 3.58887C23.4304 3.75009 23.1538 4.017 22.9844 4.37018C22.5818 5.20992 22.9361 6.21708 23.7757 6.61969ZM6.91768 29.7708C3.75418 26.6072 2.01198 22.4012 2.01198 17.9272C2.01198 14.6893 2.93504 11.5565 4.68294 8.85077C4.4348 8.97783 4.21466 9.16788 4.04914 9.41637C2.21799 12.1662 1.25 15.3728 1.25 18.6891C1.25 23.163 2.9922 27.3691 6.1557 30.5327C9.31927 33.6962 13.5253 35.4384 17.9993 35.4384C22.4733 35.4384 26.6792 33.6962 29.8428 30.5327C29.9701 30.4054 30.0944 30.2756 30.2171 30.145C27.1015 33.0708 23.055 34.6765 18.7611 34.6765C14.2873 34.6765 10.0812 32.9343 6.91768 29.7708Z" fill="black"/>
<path d="M18.0009 6.68939C19.6928 6.68939 21.0644 5.31784 21.0644 3.62595C21.0644 1.93405 19.6928 0.5625 18.0009 0.5625C16.3091 0.5625 14.9375 1.93405 14.9375 3.62595C14.9375 5.31784 16.3091 6.68939 18.0009 6.68939Z" fill="#7E858B"/>
<path opacity="0.2" d="M18.5347 6.15357C16.8428 6.15357 15.4713 4.78198 15.4713 3.09013C15.4713 2.38074 15.713 1.72824 16.1178 1.20898C15.3986 1.76952 14.9355 2.64336 14.9355 3.62591C14.9355 5.31777 16.3071 6.68935 17.999 6.68935C18.9815 6.68935 19.8554 6.22627 20.4159 5.50712C19.8967 5.91184 19.2442 6.15357 18.5347 6.15357Z" fill="black"/>
<path d="M8.23811 3.41525C7.14053 4.11683 6.77455 5.54909 7.40111 6.69118L15.0296 20.5976C16.0147 22.3934 18.3138 22.9808 20.0397 21.8776C21.7656 20.7744 22.1977 18.4411 20.9813 16.793L11.5628 4.03098C10.7892 2.98283 9.33569 2.71367 8.23811 3.41525Z" fill="#E45D4C"/>
<path opacity="0.2" d="M20.8764 21.0416C19.1505 22.1448 16.8514 21.5573 15.8663 19.7615L8.23783 5.85512C7.80006 5.05715 7.84738 4.11784 8.28972 3.38477C8.27249 3.39517 8.25512 3.40516 8.23811 3.41598C7.14053 4.11756 6.77455 5.54983 7.40111 6.69198L15.0296 20.5984C16.0147 22.3942 18.3138 22.9816 20.0397 21.8785C20.4369 21.6246 20.7646 21.305 21.0204 20.9443C20.9732 20.9775 20.9255 21.0102 20.8764 21.0416Z" fill="black"/>
<path d="M14.5367 20.8683C15.0808 21.8602 16.0214 22.5896 17.1176 22.8697C17.4502 22.9547 17.7899 22.9964 18.1286 22.9964C18.9064 22.9964 19.6783 22.776 20.3421 22.3516C21.2954 21.7422 21.9602 20.7548 22.1663 19.6424C22.3723 18.5299 22.1052 17.3699 21.4333 16.4596L12.0148 3.69766C11.0691 2.41615 9.27714 2.08434 7.9353 2.94209C6.59345 3.79983 6.14226 5.56552 6.90824 6.96185L14.5367 20.8683ZM8.54069 3.8892C8.85738 3.68677 9.21379 3.58952 9.56725 3.58952C10.157 3.58952 10.7379 3.86044 11.1103 4.36514L20.5289 17.1272C21.0238 17.7977 21.2127 18.6183 21.061 19.4377C20.9092 20.2572 20.4389 20.9557 19.7368 21.4045C19.0345 21.8534 18.2032 21.987 17.3958 21.7806C16.5884 21.5743 15.9229 21.0584 15.5222 20.3277L7.89374 6.42129C7.41126 5.54175 7.69546 4.42955 8.54069 3.8892ZM18.0006 7.25098C19.9997 7.25098 21.6261 5.62451 21.6261 3.62545C21.6261 1.6264 19.9997 0 18.0006 0C16.0015 0 14.3751 1.6264 14.3751 3.62552C14.3751 5.62465 16.0015 7.25098 18.0006 7.25098ZM18.0006 1.12409C19.3798 1.12409 20.502 2.2462 20.502 3.62545C20.502 5.0047 19.3798 6.12682 18.0006 6.12682C16.6213 6.12682 15.4992 5.00463 15.4992 3.62545C15.4992 2.2462 16.6213 1.12409 18.0006 1.12409ZM32.5751 9.34305C30.8331 6.63131 28.3791 4.46273 25.4785 3.07167C24.3608 2.53575 23.0152 3.00902 22.4792 4.12671C21.9432 5.24447 22.4164 6.59004 23.5342 7.1261C25.6827 8.15646 27.5007 9.76345 28.7919 11.7733C30.1159 13.8343 30.8158 16.2257 30.8158 18.6886C30.8158 25.7548 25.067 31.5035 18.0008 31.5035C10.9346 31.5035 5.18601 25.7548 5.18601 18.6886C5.18601 16.1509 5.92584 13.6985 7.32541 11.5966C7.6582 11.0968 7.77653 10.4972 7.65848 9.90837C7.54035 9.31957 7.20004 8.81198 6.70026 8.4792C6.20041 8.14641 5.60085 8.028 5.01205 8.14612C4.42326 8.26425 3.91567 8.60456 3.58288 9.10434C1.69 11.9468 0.689453 15.261 0.689453 18.6886C0.689453 23.3127 2.49016 27.6599 5.75983 30.9296C9.0295 34.1993 13.3768 36 18.0008 36C22.6248 36 26.9721 34.1993 30.2418 30.9296C33.5115 27.66 35.3122 23.3126 35.3122 18.6886C35.3122 15.3622 34.3657 12.1305 32.5751 9.34305ZM29.4468 30.1347C26.3894 33.1921 22.3245 34.8759 18.0008 34.8759C13.6771 34.8759 9.61204 33.1921 6.55471 30.1347C3.49738 27.0773 1.81354 23.0124 1.81354 18.6886C1.81354 15.4834 2.74891 12.3847 4.51839 9.72745C4.68482 9.47763 4.93858 9.30741 5.23305 9.24834C5.30744 9.23344 5.38218 9.22605 5.45636 9.22605C5.67573 9.22605 5.89033 9.29053 6.07708 9.41491C6.3269 9.58134 6.49713 9.8351 6.55619 10.1295C6.61525 10.424 6.55605 10.7237 6.38969 10.9736C4.86679 13.2606 4.06178 15.9284 4.06178 18.6887C4.06178 26.3747 10.3148 32.6277 18.0008 32.6277C25.6868 32.6277 31.9398 26.3747 31.9398 18.6887C31.9398 16.0098 31.1784 13.4085 29.7377 11.1658C28.3339 8.98045 26.3567 7.23312 24.0203 6.11255C23.4613 5.84452 23.2248 5.17177 23.4928 4.61292C23.7607 4.05408 24.4334 3.81741 24.9925 4.08544C27.7051 5.38629 30.0001 7.41445 31.6293 9.95077C33.3033 12.5567 34.1882 15.5782 34.1882 18.6888C34.1881 23.0124 32.5043 27.0773 29.4468 30.1347Z" fill="black"/>
</g>
<defs>
<clipPath id="clip0_652_896">
<rect width="36" height="36" fill="white"/>
</clipPath>
</defs>
</svg>
