<svg width="4753" height="1594" viewBox="0 0 4753 1594" fill="none" xmlns="http://www.w3.org/2000/svg">
<path d="M768.154 383.918C765.001 383.918 764.106 385.588 765.917 389.13C768.333 395.364 768.903 399.257 781.762 434.87C800.032 485.418 837.165 736.084 927.544 762.028C1012.16 786.313 1026.17 937.776 1035.35 949.339C1046.61 963.508 799.238 777.282 694.323 733.074C589.408 688.866 585.562 596.918 472.429 544.412C359.296 491.907 135.501 501.47 135.501 501.47C135.501 501.47 203.808 643.349 330.996 670.974C458.184 698.599 531.891 693.418 593.657 723.096C655.423 752.774 777.557 802.599 780.151 812.683C712.873 820.533 576.651 839.276 521.146 831.936C477.863 826.245 351.335 744.711 259.759 760.954C168.184 777.197 131.297 829.032 63.8954 801.024C-3.5059 773.017 0.68708 779.75 0.68708 779.75C0.68708 779.75 103.958 928.235 246.252 930.884C472.898 894.717 630.042 831.255 789.533 845.19C890.568 867.018 1025.59 980.506 1105.4 1072.51C1162.02 1137.79 1203.17 1190.09 1189.81 1182.42C1189.81 1182.42 1076.55 1121.93 939.352 1183.82C800.502 1246.43 669.4 1219.36 617.753 1195.99C568.924 1173.89 552.365 1174.87 552.365 1174.87C637.779 1312.48 863.397 1394.74 938.96 1237.21C1065.11 1114.33 1217.73 1214.54 1342.13 1340.39V1295.47C1221.83 1160.95 1094.59 1009.69 1064.77 940.383C1003.51 797.982 1056.82 745.232 1048.93 647.051C1040.21 538.551 798.623 383.897 768.176 383.95L768.154 383.918Z" fill="#9DAD7F"/>
<path d="M3984.52 383.918C3987.68 383.918 3988.57 385.588 3986.76 389.129C3984.35 395.361 3983.77 399.253 3970.92 434.859C3952.65 485.396 3915.51 736.006 3825.13 761.945C3740.51 786.224 3726.5 937.654 3717.32 949.214C3706.06 963.379 3953.44 777.195 4058.35 732.996C4163.27 688.798 4167.12 596.87 4280.25 544.377C4393.38 491.883 4617.18 501.444 4617.18 501.444C4617.18 501.444 4548.87 643.292 4421.68 670.91C4294.5 698.529 4220.79 693.35 4159.02 723.021C4097.26 752.692 3975.12 802.506 3972.53 812.588C4039.8 820.436 4176.03 839.175 4231.53 831.837C4274.82 826.147 4401.35 744.631 4492.92 760.87C4584.5 777.11 4621.38 828.933 4688.79 800.932C4756.19 772.93 4751.99 779.662 4751.99 779.662C4751.99 779.662 4648.72 928.114 4506.43 930.762C4279.78 894.604 4122.64 831.156 3963.14 845.088C3862.11 866.91 3727.08 980.374 3647.28 1072.35C3590.66 1137.62 3549.51 1189.91 3562.86 1182.24C3562.86 1182.24 3676.13 1121.76 3813.32 1183.64C3952.18 1246.23 4083.28 1219.18 4134.93 1195.81C4183.75 1173.72 4200.31 1174.69 4200.31 1174.69C4114.9 1312.28 3889.28 1394.52 3813.72 1237.02C3687.57 1114.17 3534.94 1214.35 3410.55 1340.18V1295.27C3530.85 1160.77 3658.08 1009.56 3687.9 940.259C3749.17 797.89 3695.85 745.152 3703.75 646.992C3712.47 538.517 3954.05 383.897 3984.5 383.95L3984.52 383.918Z" fill="#9DAD7F"/>
<path d="M1753.2 410C1757.53 419.667 1757.7 429.167 1753.7 438.5C1749.7 447.5 1743.37 455.833 1734.7 463.5C1726.03 471.167 1716.03 477.833 1704.7 483.5C1693.7 489.167 1683.2 493.167 1673.2 495.5C1662.2 497.833 1650.53 498.833 1638.2 498.5C1626.2 498.5 1614.03 497 1601.7 494C1589.7 491.333 1577.87 487.333 1566.2 482C1554.87 476.333 1544.37 469.5 1534.7 461.5C1523.03 451.833 1513.87 440.333 1507.2 427C1500.87 413.333 1496.2 398.833 1493.2 383.5C1490.2 368.167 1488.53 352.833 1488.2 337.5C1488.2 321.833 1488.7 307.167 1489.7 293.5C1490.7 281.167 1493.2 268.333 1497.2 255C1501.2 241.667 1506.7 228.667 1513.7 216C1521.03 203 1529.7 191 1539.7 180C1550.03 169 1562.03 159.667 1575.7 152C1586.03 146 1597.53 142 1610.2 140C1623.2 137.667 1636.2 137.167 1649.2 138.5C1662.53 139.5 1675.03 142.333 1686.7 147C1698.7 151.333 1708.87 157.333 1717.2 165C1722.53 169.667 1728.03 176.167 1733.7 184.5C1739.7 192.833 1744.03 201.333 1746.7 210C1749.37 218.667 1749.37 226.833 1746.7 234.5C1744.37 241.833 1737.7 246.833 1726.7 249.5C1722.03 250.833 1717.87 251.167 1714.2 250.5C1710.53 249.5 1707.2 248 1704.2 246C1701.2 243.667 1698.37 241 1695.7 238C1693.03 235 1690.53 232 1688.2 229C1680.2 219.333 1670.87 212.833 1660.2 209.5C1649.53 205.833 1638.87 205 1628.2 207C1617.87 208.667 1608.03 213 1598.7 220C1589.7 226.667 1582.7 235.333 1577.7 246C1572.37 257.333 1568.03 269.833 1564.7 283.5C1561.7 296.833 1560.03 310.5 1559.7 324.5C1559.37 338.167 1560.53 351.5 1563.2 364.5C1566.2 377.5 1571.2 389 1578.2 399C1583.53 407 1590.03 413.5 1597.7 418.5C1605.7 423.5 1614.2 427 1623.2 429C1632.2 431 1641.2 431.333 1650.2 430C1659.53 428.667 1668.53 425.667 1677.2 421C1679.87 419.667 1682.7 417.833 1685.7 415.5C1689.03 412.833 1692.37 410.167 1695.7 407.5C1699.03 404.833 1702.37 402.333 1705.7 400C1709.37 397.667 1713.2 396 1717.2 395C1723.2 393 1729.7 393.167 1736.7 395.5C1744.03 397.833 1749.53 402.667 1753.2 410ZM1870.24 152C1892.58 143.667 1912.74 140 1930.74 141C1949.08 142 1965.41 146.667 1979.74 155C1994.08 163 2006.24 173.833 2016.24 187.5C2026.58 201.167 2034.91 216.5 2041.24 233.5C2046.24 246.167 2050.08 259.5 2052.74 273.5C2055.41 287.5 2056.91 301.5 2057.24 315.5C2057.91 329.167 2057.41 342.667 2055.74 356C2054.41 369.333 2052.08 381.667 2048.74 393C2046.74 400.667 2044.41 407.667 2041.74 414C2039.08 420.333 2035.91 426.667 2032.24 433C2023.91 447.333 2013.08 459 1999.74 468C1986.74 477 1972.41 483.333 1956.74 487C1946.08 489.667 1935.08 491 1923.74 491C1912.41 490.667 1901.24 489.167 1890.24 486.5C1879.24 483.5 1868.58 479.333 1858.24 474C1848.24 468.333 1839.08 461.333 1830.74 453C1820.41 443 1811.91 431.5 1805.24 418.5C1798.58 405.167 1793.41 391.333 1789.74 377C1786.08 362.333 1783.74 347.667 1782.74 333C1781.74 318.333 1781.74 304.333 1782.74 291C1783.74 278.667 1786.08 265.5 1789.74 251.5C1793.74 237.5 1799.41 224 1806.74 211C1814.08 198 1822.91 186.333 1833.24 176C1843.91 165.333 1856.24 157.333 1870.24 152ZM1987.24 366C1991.24 350.333 1992.91 332.667 1992.24 313C1991.58 293.333 1988.41 274.833 1982.74 257.5C1979.08 246.833 1974.41 237.5 1968.74 229.5C1963.41 221.167 1956.91 214.833 1949.24 210.5C1941.91 206.167 1933.24 204 1923.24 204C1913.24 204 1902.08 207 1889.74 213C1882.41 216.667 1876.08 221.667 1870.74 228C1865.74 234.333 1861.58 241.5 1858.24 249.5C1855.24 257.5 1852.74 265.833 1850.74 274.5C1849.08 283.167 1848.08 291.5 1847.74 299.5C1847.08 308.167 1846.91 317.333 1847.24 327C1847.58 336.333 1848.58 345.833 1850.24 355.5C1852.24 364.833 1854.91 373.833 1858.24 382.5C1861.58 390.833 1866.08 398.333 1871.74 405C1880.41 415 1890.41 422 1901.74 426C1913.41 429.667 1924.91 430.167 1936.24 427.5C1954.58 423.5 1968.58 411.333 1978.24 391C1982.24 383.667 1985.24 375.333 1987.24 366ZM2339.02 456C2339.68 457.667 2340.02 460.167 2340.02 463.5C2340.02 466.5 2340.02 469 2340.02 471C2340.02 473.667 2339.52 476.167 2338.52 478.5C2337.52 480.833 2336.18 483 2334.52 485C2331.52 489 2327.18 492 2321.52 494C2313.52 496.667 2306.02 498 2299.02 498C2295.35 498.333 2291.52 498.5 2287.52 498.5C2283.52 498.5 2279.52 498.833 2275.52 499.5H2273.52C2247.85 499.833 2221.35 499.833 2194.02 499.5C2187.35 499.167 2179.85 499.167 2171.52 499.5C2163.18 500.167 2155.02 500 2147.02 499C2139.02 498.333 2131.68 496.5 2125.02 493.5C2118.68 490.167 2114.18 485 2111.52 478C2110.85 476.333 2110.35 474.833 2110.02 473.5C2109.68 471.833 2109.52 470.167 2109.52 468.5C2108.18 457.167 2107.68 446 2108.02 435C2108.35 424 2108.52 413.167 2108.52 402.5L2109.52 330V263C2109.52 251 2109.52 240.333 2109.52 231C2109.85 221.667 2110.18 211.333 2110.52 200V197.5C2110.85 194.167 2111.02 190.833 2111.02 187.5C2111.35 184.167 2111.52 180.833 2111.52 177.5C2112.18 169.833 2114.02 163.333 2117.02 158C2119.02 153 2122.52 149 2127.52 146C2131.85 143 2137.02 141.5 2143.02 141.5C2145.35 141.5 2147.52 141.667 2149.52 142C2151.85 142 2154.02 142.167 2156.02 142.5C2158.02 142.833 2159.85 143.5 2161.52 144.5C2163.52 145.5 2165.52 146.833 2167.52 148.5C2169.52 150.833 2171.35 153.667 2173.02 157C2174.35 160.667 2175.18 164.333 2175.52 168C2175.85 170.333 2176.18 172.5 2176.52 174.5C2176.85 176.5 2177.02 178.5 2177.02 180.5C2176.35 182.5 2176.02 184.5 2176.02 186.5C2176.02 188.5 2176.02 190.333 2176.02 192V201L2174.02 436.5L2273.02 437.5H2296.52C2298.52 437.5 2300.68 437.667 2303.02 438C2305.35 438 2307.68 438.167 2310.02 438.5C2312.68 438.833 2315.02 439.167 2317.02 439.5C2319.02 439.833 2321.02 440.333 2323.02 441C2326.68 442 2329.68 443.667 2332.02 446C2335.68 449.333 2338.02 452.667 2339.02 456ZM2580.89 155.5C2584.56 159.833 2586.39 164.333 2586.39 169C2586.39 171 2586.23 173.167 2585.89 175.5C2585.89 177.5 2585.73 179.333 2585.39 181C2584.39 184.667 2582.23 188.167 2578.89 191.5C2576.23 193.5 2572.56 195 2567.89 196C2565.56 196.667 2563.23 197.167 2560.89 197.5C2558.56 197.833 2556.06 198.333 2553.39 199C2551.06 199.333 2548.73 199.5 2546.39 199.5C2544.06 199.5 2541.56 199.5 2538.89 199.5H2513.39C2507.39 199.833 2501.39 200 2495.39 200C2489.73 200 2484.06 200 2478.39 200C2478.73 210.333 2478.89 221.5 2478.89 233.5C2478.89 245.167 2478.73 258.833 2478.39 274.5C2478.39 290.167 2478.23 308.333 2477.89 329C2477.89 349.667 2477.89 373.667 2477.89 401V439C2477.89 442.333 2478.06 444.833 2478.39 446.5C2478.39 447.833 2478.39 449.167 2478.39 450.5C2478.39 451.5 2478.23 452.833 2477.89 454.5C2477.23 457.5 2476.73 461 2476.39 465C2476.39 466.667 2476.23 468.333 2475.89 470C2475.56 471.333 2475.06 472.833 2474.39 474.5C2473.06 475.833 2472.39 476.833 2472.39 477.5L2470.89 480.5C2469.23 483.833 2466.06 487 2461.39 490C2454.06 493.667 2445.89 494.5 2436.89 492.5C2431.23 491.833 2426.89 490.333 2423.89 488C2420.89 485 2418.73 482 2417.39 479C2415.39 475.333 2414.23 471.833 2413.89 468.5C2412.89 465.5 2412.39 462.333 2412.39 459V202C2410.39 202 2406.23 202 2399.89 202C2393.56 202 2386.73 202 2379.39 202C2372.39 201.667 2365.73 201.333 2359.39 201C2353.06 200.667 2348.73 200.333 2346.39 200C2344.39 199.667 2341.23 199.167 2336.89 198.5C2332.89 197.833 2329.56 197.167 2326.89 196.5C2319.89 194.5 2314.39 191.333 2310.39 187C2306.73 182.667 2304.89 177.833 2304.89 172.5C2304.89 170.5 2304.89 168.5 2304.89 166.5C2304.89 164.5 2305.23 162.667 2305.89 161C2306.89 157 2309.56 153.667 2313.89 151C2315.23 150 2317.23 148.833 2319.89 147.5C2322.89 145.833 2325.73 144.667 2328.39 144C2332.39 142.667 2337.39 141.667 2343.39 141C2346.06 140.667 2348.73 140.5 2351.39 140.5C2354.06 140.5 2356.89 140.5 2359.89 140.5C2371.56 140.5 2382.56 140.5 2392.89 140.5C2403.56 140.5 2414.73 140.333 2426.39 140C2445.73 139.667 2464.89 139.667 2483.89 140C2503.23 140 2522.39 140.333 2541.39 141C2545.73 141.333 2549.89 141.833 2553.89 142.5C2557.89 143.167 2561.89 144.333 2565.89 146C2568.89 147 2571.73 148.333 2574.39 150C2577.06 151.333 2579.23 153.167 2580.89 155.5ZM2621.76 441L2622.26 401.5L2622.76 328C2623.1 317.333 2623.26 306.333 2623.26 295C2623.26 283.667 2623.26 272 2623.26 260C2623.26 248 2623.26 237.333 2623.26 228C2623.26 218.667 2623.6 208.167 2624.26 196.5V194.5C2624.6 191.167 2624.76 187.833 2624.76 184.5C2625.1 180.833 2625.26 177.167 2625.26 173.5C2625.6 167.5 2627.43 161 2630.76 154C2633.1 149.333 2636.6 145.333 2641.26 142C2646.6 139.333 2651.76 138 2656.76 138C2659.43 138 2661.76 138.167 2663.76 138.5C2666.1 138.5 2668.26 138.667 2670.26 139C2674.6 139.667 2678.43 141.667 2681.76 145C2683.76 146.667 2685.6 149.333 2687.26 153C2687.93 155 2688.43 157 2688.76 159C2689.43 160.667 2689.93 162.5 2690.26 164.5C2690.6 166.833 2690.76 169 2690.76 171C2691.1 173 2691.26 175 2691.26 177C2691.26 179.333 2691.1 181.5 2690.76 183.5C2690.76 185.167 2690.76 187 2690.76 189V197.5L2687.76 457V462C2687.76 463 2687.6 464.333 2687.26 466C2687.26 467.333 2687.1 469 2686.76 471C2686.1 472.667 2685.43 474.5 2684.76 476.5C2684.43 478.167 2683.93 480 2683.26 482C2682.26 483.667 2681.1 485.333 2679.76 487C2678.76 488.333 2677.43 489.667 2675.76 491C2673.1 493.667 2668.76 495.5 2662.76 496.5C2653.76 498.5 2645.26 497.667 2637.26 494C2633.26 491.333 2630.43 488 2628.76 484C2627.76 483 2627.26 482 2627.26 481C2626.93 480.333 2626.6 479.833 2626.26 479.5C2625.93 479.167 2625.6 478.667 2625.26 478C2624.6 476.333 2624.1 474.667 2623.76 473C2623.43 471 2623.26 469 2623.26 467C2622.93 465.333 2622.6 463.667 2622.26 462C2622.26 460.333 2622.1 458.667 2621.76 457C2621.43 454.333 2621.43 451.5 2621.76 448.5V441ZM3042 164C3043.67 171.667 3043.83 179.5 3042.5 187.5C3041.5 195.167 3040 202.167 3038 208.5C3034 221.5 3029.33 236 3024 252C3018.67 268 3013.33 284 3008 300C3002.67 316 2997.5 331.167 2992.5 345.5C2987.5 359.5 2983.33 371.167 2980 380.5C2976.67 389.167 2973.17 399 2969.5 410C2965.83 421 2961.33 431.833 2956 442.5C2951 452.833 2945 462.333 2938 471C2931.33 479.667 2923.17 486 2913.5 490C2903.83 494 2895 495 2887 493C2879 490.667 2871.83 486.667 2865.5 481C2859.17 475 2853.33 467.667 2848 459C2843 450 2838.5 440.833 2834.5 431.5C2830.5 422.167 2826.83 413.167 2823.5 404.5C2820.17 395.5 2817.17 387.833 2814.5 381.5C2804.17 358.833 2794.83 334.833 2786.5 309.5C2778.17 284.167 2769.67 260 2761 237C2758.67 230.333 2756 222.333 2753 213C2750 203.333 2748 193.833 2747 184.5C2746.33 174.833 2747.5 166.167 2750.5 158.5C2753.5 150.5 2759.83 145 2769.5 142C2771.5 141.333 2773.5 140.833 2775.5 140.5C2777.83 139.833 2780 139.333 2782 139C2784.33 139 2786.5 139.167 2788.5 139.5C2790.5 139.833 2792.67 140.667 2795 142C2796.67 142.667 2798.33 143.5 2800 144.5C2801.67 145.167 2803.17 146.167 2804.5 147.5C2805.83 149.167 2807 150.833 2808 152.5C2809.33 154.167 2810.67 155.833 2812 157.5C2813 159.833 2813.83 162 2814.5 164C2815.5 165.667 2816.33 167.333 2817 169C2817.67 171.333 2818.5 173.5 2819.5 175.5C2820.5 177.167 2821.33 178.833 2822 180.5L2825 189L2897 394.5L2968 189.5L2971.5 181C2972.17 179.333 2972.83 177.667 2973.5 176C2974.17 174 2974.83 171.833 2975.5 169.5C2976.17 167.833 2976.83 166.167 2977.5 164.5C2978.5 162.5 2979.67 160.5 2981 158.5C2982 156.833 2983 155.167 2984 153.5C2985.33 151.5 2986.67 149.667 2988 148C2989 146.667 2990.17 145.5 2991.5 144.5C2993.17 143.5 2994.67 142.667 2996 142C2998.67 140.667 3001 139.833 3003 139.5C3005.33 139.167 3007.33 139 3009 139C3011 139.333 3013 139.833 3015 140.5C3017.33 140.833 3019.5 141.333 3021.5 142C3027.83 143.667 3032.5 146.5 3035.5 150.5C3038.83 154.5 3041 159 3042 164ZM3347.09 460C3347.43 462 3347.59 464 3347.59 466C3347.93 467.667 3348.09 469.667 3348.09 472C3348.09 476 3346.93 479.667 3344.59 483C3343.59 484.667 3342.26 486.333 3340.59 488C3338.93 489.333 3336.93 490.5 3334.59 491.5C3326.26 496.167 3317.43 497.833 3308.09 496.5C3303.43 495.167 3299.26 493 3295.59 490C3294.93 489.333 3294.43 489 3294.09 489C3293.76 488.667 3293.43 488.167 3293.09 487.5C3292.76 487.167 3292.43 486.833 3292.09 486.5C3291.76 485.833 3291.26 485.333 3290.59 485C3288.93 483.333 3287.59 481.833 3286.59 480.5C3285.59 478.833 3284.59 477.167 3283.59 475.5C3282.93 473.833 3282.09 472.333 3281.09 471C3280.43 469.333 3279.59 467.667 3278.59 466C3277.93 464.667 3277.26 463.5 3276.59 462.5C3275.93 461.167 3275.43 459.833 3275.09 458.5C3273.76 455.5 3272.93 452.833 3272.59 450.5L3262.09 426C3239.09 426 3216.09 426.167 3193.09 426.5C3170.43 426.5 3147.59 426.333 3124.59 426L3114.09 450.5C3113.43 451.833 3112.93 453.167 3112.59 454.5C3112.59 455.833 3112.26 457.167 3111.59 458.5C3110.93 459.833 3110.26 461.167 3109.59 462.5C3109.26 463.5 3108.76 464.667 3108.09 466C3107.09 467.667 3106.09 469.333 3105.09 471C3104.43 472.333 3103.59 473.833 3102.59 475.5C3101.93 477.167 3101.09 478.833 3100.09 480.5C3099.09 481.833 3097.76 483.333 3096.09 485C3095.43 485.333 3094.93 485.833 3094.59 486.5C3094.26 486.833 3093.93 487.167 3093.59 487.5C3093.26 488.167 3092.93 488.667 3092.59 489C3092.26 489 3091.76 489.333 3091.09 490C3087.43 493 3083.26 495.167 3078.59 496.5C3069.26 497.833 3060.43 496.167 3052.09 491.5C3049.76 490.5 3047.76 489.333 3046.09 488C3044.43 486.333 3043.09 484.667 3042.09 483C3039.76 479.667 3038.59 476 3038.59 472C3038.59 469.667 3038.59 467.667 3038.59 466C3038.93 464 3039.26 462 3039.59 460C3040.26 457 3041.09 454 3042.09 451C3043.09 448 3043.59 446.5 3043.59 446.5L3147.59 190.5L3150.59 182.5C3151.26 180.5 3152.09 178.667 3153.09 177C3154.09 175.333 3154.93 173.333 3155.59 171C3157.26 166.667 3159.09 162.833 3161.09 159.5C3162.09 157.5 3163.26 155.667 3164.59 154C3165.93 152.333 3167.26 150.667 3168.59 149C3170.59 146.333 3173.43 144.167 3177.09 142.5C3181.76 140.833 3187.09 140 3193.09 140C3199.43 140 3204.93 140.833 3209.59 142.5C3213.26 144.167 3216.09 146.333 3218.09 149C3220.43 152 3222.93 155.5 3225.59 159.5C3227.59 162.833 3229.43 166.667 3231.09 171C3231.76 173.333 3232.59 175.333 3233.59 177C3234.59 178.667 3235.43 180.5 3236.09 182.5L3239.09 190.5L3343.09 446.5C3343.09 446.5 3343.59 448 3344.59 451C3345.59 454 3346.43 457 3347.09 460ZM3228.59 337.5C3224.26 327.833 3219.76 317.833 3215.09 307.5C3210.76 297.167 3206.09 286.667 3201.09 276C3199.76 273 3198.43 270 3197.09 267C3195.76 263.667 3194.43 260.5 3193.09 257.5C3192.09 260.5 3190.93 263.667 3189.59 267C3188.26 270 3186.93 273 3185.59 276C3180.59 286.667 3175.76 297.167 3171.09 307.5C3166.76 317.833 3162.43 327.833 3158.09 337.5L3149.09 359.5H3237.59L3228.59 337.5ZM1733.09 956C1732.75 961.667 1731.92 967.667 1730.59 974C1729.59 980.333 1726.42 985.5 1721.09 989.5C1717.09 992.833 1712.59 994.833 1707.59 995.5C1702.59 996.167 1697.59 995.833 1692.59 994.5C1687.92 993.5 1683.42 991.833 1679.09 989.5C1674.75 986.833 1671.25 983.667 1668.59 980C1657.25 966 1646.75 951.667 1637.09 937C1627.75 922 1618.25 907 1608.59 892L1566.59 828.5C1560.92 819.5 1554.92 809.5 1548.59 798.5C1542.25 787.167 1535.75 776.667 1529.09 767L1527.59 958V962.5C1527.59 967.833 1526.59 973.167 1524.59 978.5C1522.92 983.5 1519.92 987.833 1515.59 991.5C1512.25 994.167 1507.92 996 1502.59 997C1494.25 998.667 1487.25 998.167 1481.59 995.5C1476.25 992.833 1471.92 989.167 1468.59 984.5C1465.59 979.833 1463.42 974.5 1462.09 968.5C1461.09 962.167 1460.92 956 1461.59 950V941.5L1462.59 902.5L1463.09 830C1463.42 819.333 1463.59 808.5 1463.59 797.5C1463.59 786.167 1463.59 774.667 1463.59 763C1463.25 748.667 1463.25 733.5 1463.59 717.5C1464.25 701.5 1464.92 686.5 1465.59 672.5C1466.25 664.833 1468.09 658.333 1471.09 653C1472.42 648.333 1475.92 644.333 1481.59 641C1485.25 638.667 1489.92 637.167 1495.59 636.5C1501.59 635.833 1506.75 636 1511.09 637C1512.75 637.667 1514.42 638.5 1516.09 639.5C1517.75 640.167 1519.42 641 1521.09 642C1522.75 643.333 1524.25 644.667 1525.59 646C1527.25 647.333 1528.75 648.833 1530.09 650.5C1531.75 652.167 1533.25 654 1534.59 656C1535.92 657.667 1537.25 659.333 1538.59 661C1539.59 663 1540.59 664.833 1541.59 666.5C1542.59 668.167 1543.75 669.833 1545.09 671.5L1550.59 679.5L1666.09 861.5V828.5C1666.09 817.833 1665.92 807 1665.59 796C1665.59 784.667 1665.42 773 1665.09 761C1665.09 747 1665.09 732 1665.09 716C1665.42 700 1665.92 685 1666.59 671C1666.59 665.333 1668.25 658.833 1671.59 651.5C1673.25 647.167 1676.09 643.667 1680.09 641C1684.09 638.333 1688.59 636.5 1693.59 635.5C1698.59 634.5 1703.59 634.5 1708.59 635.5C1713.59 636.5 1717.92 638.5 1721.59 641.5C1722.59 642.5 1723.59 643.667 1724.59 645C1725.59 646.333 1726.42 647.833 1727.09 649.5C1728.75 653.833 1729.75 657.667 1730.09 661C1731.09 665.667 1731.59 669.833 1731.59 673.5C1731.59 715.167 1731.59 757.667 1731.59 801C1731.92 844.333 1732.25 886.833 1732.59 928.5C1732.59 933.167 1732.75 937.833 1733.09 942.5C1733.42 946.833 1733.42 951.333 1733.09 956ZM1851.95 700L1850.95 778.5H1870.95C1884.62 778.167 1896.79 778 1907.45 778C1918.12 778 1929.95 778.167 1942.95 778.5H1945.45C1949.45 778.5 1953.29 778.667 1956.95 779C1960.95 779 1964.79 779 1968.45 779C1972.45 779.333 1976.29 780 1979.95 781C1983.62 781.667 1987.29 782.5 1990.95 783.5C1996.62 785.5 2001.29 788.5 2004.95 792.5C2008.29 796.833 2009.95 801.667 2009.95 807C2009.95 808.667 2009.95 810.667 2009.95 813C2009.95 815 2009.62 816.833 2008.95 818.5C2008.29 822.167 2006.12 825.5 2002.45 828.5C2000.79 830.833 1997.62 832.5 1992.95 833.5C1988.62 834.833 1984.29 835.667 1979.95 836C1975.29 837 1970.62 837.5 1965.95 837.5H1942.45L1849.95 838L1848.95 936L1948.45 937H1971.95C1974.62 937 1977.12 937 1979.45 937C1981.79 937 1983.95 937.167 1985.95 937.5C1988.62 938.167 1990.95 938.667 1992.95 939C1995.29 939 1997.45 939.333 1999.45 940C2003.45 941.333 2006.79 943.167 2009.45 945.5C2012.79 948.833 2014.95 952.333 2015.95 956C2016.29 957.667 2016.45 959.5 2016.45 961.5C2016.79 963.167 2016.79 965 2016.45 967C2016.45 972.333 2014.79 977.167 2011.45 981.5C2007.45 986.167 2002.79 989.167 1997.45 990.5C1990.45 993.5 1982.79 995 1974.45 995C1970.79 995.333 1966.95 995.5 1962.95 995.5C1958.95 995.5 1955.12 995.667 1951.45 996H1948.45C1922.45 996.667 1895.45 996.667 1867.45 996C1860.79 996 1855.45 995.833 1851.45 995.5C1847.45 995.5 1843.79 995.5 1840.45 995.5C1837.45 995.5 1834.29 995.5 1830.95 995.5C1827.62 995.5 1823.29 995.5 1817.95 995.5C1810.29 996.167 1803.95 994.833 1798.95 991.5C1795.29 989.167 1792.45 986 1790.45 982C1789.45 981 1788.95 980 1788.95 979C1788.62 978.333 1788.29 977.833 1787.95 977.5C1787.62 977.167 1787.29 976.667 1786.95 976C1786.29 974.333 1785.79 972.667 1785.45 971C1785.12 969 1784.95 967.167 1784.95 965.5C1784.62 963.833 1784.29 962.167 1783.95 960.5C1783.95 958.833 1783.79 957.167 1783.45 955.5V947.5C1783.45 946.167 1783.45 944.833 1783.45 943.5C1783.79 942.167 1783.95 940.833 1783.95 939.5V900.5L1784.95 828.5V762C1784.95 750 1784.95 739.333 1784.95 730C1785.29 720.667 1785.62 710.5 1785.95 699.5V697C1786.29 693.333 1786.45 690 1786.45 687C1786.79 683.667 1786.95 680.333 1786.95 677C1787.29 670.333 1789.12 663.833 1792.45 657.5C1793.79 654.833 1795.12 652.5 1796.45 650.5C1798.12 648.5 1800.29 646.833 1802.95 645.5C1807.95 642.5 1813.12 641 1818.45 641C1821.12 641 1823.12 641.167 1824.45 641.5V641C1830.45 641 1835.29 641 1838.95 641C1842.62 641 1846.12 641 1849.45 641C1853.12 641 1856.95 641 1860.95 641C1864.95 640.667 1870.45 640.5 1877.45 640.5C1890.79 640.167 1903.45 640 1915.45 640C1927.45 640 1939.79 640.167 1952.45 640.5H1954.45C1958.12 640.833 1961.95 641 1965.95 641C1969.95 641 1973.79 641.167 1977.45 641.5C1981.12 641.5 1984.79 642 1988.45 643C1992.12 643.667 1995.79 644.667 1999.45 646C2005.12 647.667 2009.79 650.5 2013.45 654.5C2016.45 659.167 2017.95 663.833 2017.95 668.5C2017.95 670.5 2017.95 672.5 2017.95 674.5C2017.95 676.167 2017.62 677.833 2016.95 679.5C2016.62 682.833 2014.62 686.333 2010.95 690C2009.62 690.667 2008.12 691.5 2006.45 692.5C2005.12 693.5 2003.45 694.333 2001.45 695C1999.45 695.667 1997.29 696.167 1994.95 696.5C1992.95 696.5 1990.95 696.667 1988.95 697C1986.29 697.667 1983.79 698 1981.45 698C1979.45 698 1977.12 698 1974.45 698H1951.95L1851.95 698.5V700ZM2288.97 956C2289.63 957.667 2289.97 960.167 2289.97 963.5C2289.97 966.5 2289.97 969 2289.97 971C2289.97 973.667 2289.47 976.167 2288.47 978.5C2287.47 980.833 2286.13 983 2284.47 985C2281.47 989 2277.13 992 2271.47 994C2263.47 996.667 2255.97 998 2248.97 998C2245.3 998.333 2241.47 998.5 2237.47 998.5C2233.47 998.5 2229.47 998.833 2225.47 999.5H2223.47C2197.8 999.833 2171.3 999.833 2143.97 999.5C2137.3 999.167 2129.8 999.167 2121.47 999.5C2113.13 1000.17 2104.97 1000 2096.97 999C2088.97 998.333 2081.63 996.5 2074.97 993.5C2068.63 990.167 2064.13 985 2061.47 978C2060.8 976.333 2060.3 974.833 2059.97 973.5C2059.63 971.833 2059.47 970.167 2059.47 968.5C2058.13 957.167 2057.63 946 2057.97 935C2058.3 924 2058.47 913.167 2058.47 902.5L2059.47 830V763C2059.47 751 2059.47 740.333 2059.47 731C2059.8 721.667 2060.13 711.333 2060.47 700V697.5C2060.8 694.167 2060.97 690.833 2060.97 687.5C2061.3 684.167 2061.47 680.833 2061.47 677.5C2062.13 669.833 2063.97 663.333 2066.97 658C2068.97 653 2072.47 649 2077.47 646C2081.8 643 2086.97 641.5 2092.97 641.5C2095.3 641.5 2097.47 641.667 2099.47 642C2101.8 642 2103.97 642.167 2105.97 642.5C2107.97 642.833 2109.8 643.5 2111.47 644.5C2113.47 645.5 2115.47 646.833 2117.47 648.5C2119.47 650.833 2121.3 653.667 2122.97 657C2124.3 660.667 2125.13 664.333 2125.47 668C2125.8 670.333 2126.13 672.5 2126.47 674.5C2126.8 676.5 2126.97 678.5 2126.97 680.5C2126.3 682.5 2125.97 684.5 2125.97 686.5C2125.97 688.5 2125.97 690.333 2125.97 692V701L2123.97 936.5L2222.97 937.5H2246.47C2248.47 937.5 2250.63 937.667 2252.97 938C2255.3 938 2257.63 938.167 2259.97 938.5C2262.63 938.833 2264.97 939.167 2266.97 939.5C2268.97 939.833 2270.97 940.333 2272.97 941C2276.63 942 2279.63 943.667 2281.97 946C2285.63 949.333 2287.97 952.667 2288.97 956ZM2736.02 655.5C2739.69 659.833 2741.52 664.333 2741.52 669C2741.52 671 2741.36 673.167 2741.02 675.5C2741.02 677.5 2740.86 679.333 2740.52 681C2739.52 684.667 2737.36 688.167 2734.02 691.5C2731.36 693.5 2727.69 695 2723.02 696C2720.69 696.667 2718.36 697.167 2716.02 697.5C2713.69 697.833 2711.19 698.333 2708.52 699C2706.19 699.333 2703.86 699.5 2701.52 699.5C2699.19 699.5 2696.69 699.5 2694.02 699.5H2668.52C2662.52 699.833 2656.52 700 2650.52 700C2644.86 700 2639.19 700 2633.52 700C2633.86 710.333 2634.02 721.5 2634.02 733.5C2634.02 745.167 2633.86 758.833 2633.52 774.5C2633.52 790.167 2633.36 808.333 2633.02 829C2633.02 849.667 2633.02 873.667 2633.02 901V939C2633.02 942.333 2633.19 944.833 2633.52 946.5C2633.52 947.833 2633.52 949.167 2633.52 950.5C2633.52 951.5 2633.36 952.833 2633.02 954.5C2632.36 957.5 2631.86 961 2631.52 965C2631.52 966.667 2631.36 968.333 2631.02 970C2630.69 971.333 2630.19 972.833 2629.52 974.5C2628.19 975.833 2627.52 976.833 2627.52 977.5L2626.02 980.5C2624.36 983.833 2621.19 987 2616.52 990C2609.19 993.667 2601.02 994.5 2592.02 992.5C2586.36 991.833 2582.02 990.333 2579.02 988C2576.02 985 2573.86 982 2572.52 979C2570.52 975.333 2569.36 971.833 2569.02 968.5C2568.02 965.5 2567.52 962.333 2567.52 959V702C2565.52 702 2561.36 702 2555.02 702C2548.69 702 2541.86 702 2534.52 702C2527.52 701.667 2520.86 701.333 2514.52 701C2508.19 700.667 2503.86 700.333 2501.52 700C2499.52 699.667 2496.36 699.167 2492.02 698.5C2488.02 697.833 2484.69 697.167 2482.02 696.5C2475.02 694.5 2469.52 691.333 2465.52 687C2461.86 682.667 2460.02 677.833 2460.02 672.5C2460.02 670.5 2460.02 668.5 2460.02 666.5C2460.02 664.5 2460.36 662.667 2461.02 661C2462.02 657 2464.69 653.667 2469.02 651C2470.36 650 2472.36 648.833 2475.02 647.5C2478.02 645.833 2480.86 644.667 2483.52 644C2487.52 642.667 2492.52 641.667 2498.52 641C2501.19 640.667 2503.86 640.5 2506.52 640.5C2509.19 640.5 2512.02 640.5 2515.02 640.5C2526.69 640.5 2537.69 640.5 2548.02 640.5C2558.69 640.5 2569.86 640.333 2581.52 640C2600.86 639.667 2620.02 639.667 2639.02 640C2658.36 640 2677.52 640.333 2696.52 641C2700.86 641.333 2705.02 641.833 2709.02 642.5C2713.02 643.167 2717.02 644.333 2721.02 646C2724.02 647 2726.86 648.333 2729.52 650C2732.19 651.333 2734.36 653.167 2736.02 655.5ZM3054.41 667.5C3056.41 683.5 3057.58 702.167 3057.91 723.5C3058.25 744.5 3057.91 765.833 3056.91 787.5C3056.25 808.833 3054.75 829.167 3052.41 848.5C3050.08 867.5 3047.25 882.833 3043.91 894.5C3041.58 901.5 3038.75 908.833 3035.41 916.5C3032.41 923.833 3029.08 930.5 3025.41 936.5C3020.08 945.5 3013.58 953.5 3005.91 960.5C2998.25 967.167 2989.75 973 2980.41 978C2971.41 982.667 2961.75 986.333 2951.41 989C2941.41 991.667 2931.41 993.167 2921.41 993.5C2903.75 994.167 2886.91 991.667 2870.91 986C2855.25 980 2840.75 970.667 2827.41 958C2817.41 948.333 2809.41 938 2803.41 927C2797.41 916 2792.75 904.5 2789.41 892.5C2786.08 880.167 2783.91 867.5 2782.91 854.5C2782.25 841.5 2781.91 828.167 2781.91 814.5C2781.91 808.167 2781.75 800.333 2781.41 791C2781.41 781.333 2781.41 771.5 2781.41 761.5C2781.41 751.167 2781.41 741.167 2781.41 731.5C2781.41 721.833 2781.58 713.667 2781.91 707C2781.91 702.667 2781.91 698 2781.91 693C2781.91 687.667 2782.08 682.5 2782.41 677.5C2783.08 672.167 2784.08 667.167 2785.41 662.5C2786.75 657.5 2788.75 653 2791.41 649C2794.41 644.667 2798.58 641.5 2803.91 639.5C2809.25 637.5 2814.75 636.5 2820.41 636.5C2826.41 636.5 2832.08 637.667 2837.41 640C2842.75 642.333 2847.08 645.667 2850.41 650C2852.08 652.667 2853.25 655.333 2853.91 658C2854.58 660.667 2855.08 663.667 2855.41 667C2856.08 678 2856.41 690.5 2856.41 704.5C2856.75 718.5 2856.75 732.167 2856.41 745.5C2856.41 758.5 2856.25 770.5 2855.91 781.5C2855.58 792.5 2855.41 800.667 2855.41 806C2855.41 826 2856.41 844.167 2858.41 860.5C2860.41 876.5 2865.08 889.833 2872.41 900.5C2879.08 910.167 2886.91 916.333 2895.91 919C2904.91 921.667 2913.91 922.5 2922.91 921.5C2931.25 920.5 2939.58 917.5 2947.91 912.5C2956.58 907.167 2963.41 899.5 2968.41 889.5C2970.41 885.833 2972.08 881.667 2973.41 877C2974.75 872.333 2975.75 868 2976.41 864C2977.75 851.333 2978.91 836.667 2979.91 820C2980.91 803 2981.75 785.667 2982.41 768C2983.08 750.333 2983.41 733 2983.41 716C2983.41 699 2983.25 683.667 2982.91 670C2983.58 664 2985.41 658.5 2988.41 653.5C2991.08 649.167 2994.91 645.333 2999.91 642C3004.91 638.667 3011.75 637 3020.41 637C3027.41 637.333 3033.08 639.167 3037.41 642.5C3041.75 645.5 3045.25 648.833 3047.91 652.5C3050.91 656.833 3053.08 661.833 3054.41 667.5ZM3186.91 652C3209.24 643.667 3229.41 640 3247.41 641C3265.74 642 3282.07 646.667 3296.41 655C3310.74 663 3322.91 673.833 3332.91 687.5C3343.24 701.167 3351.57 716.5 3357.91 733.5C3362.91 746.167 3366.74 759.5 3369.41 773.5C3372.07 787.5 3373.57 801.5 3373.91 815.5C3374.57 829.167 3374.07 842.667 3372.41 856C3371.07 869.333 3368.74 881.667 3365.41 893C3363.41 900.667 3361.07 907.667 3358.41 914C3355.74 920.333 3352.57 926.667 3348.91 933C3340.57 947.333 3329.74 959 3316.41 968C3303.41 977 3289.07 983.333 3273.41 987C3262.74 989.667 3251.74 991 3240.41 991C3229.07 990.667 3217.91 989.167 3206.91 986.5C3195.91 983.5 3185.24 979.333 3174.91 974C3164.91 968.333 3155.74 961.333 3147.41 953C3137.07 943 3128.57 931.5 3121.91 918.5C3115.24 905.167 3110.07 891.333 3106.41 877C3102.74 862.333 3100.41 847.667 3099.41 833C3098.41 818.333 3098.41 804.333 3099.41 791C3100.41 778.667 3102.74 765.5 3106.41 751.5C3110.41 737.5 3116.07 724 3123.41 711C3130.74 698 3139.57 686.333 3149.91 676C3160.57 665.333 3172.91 657.333 3186.91 652ZM3303.91 866C3307.91 850.333 3309.57 832.667 3308.91 813C3308.24 793.333 3305.07 774.833 3299.41 757.5C3295.74 746.833 3291.07 737.5 3285.41 729.5C3280.07 721.167 3273.57 714.833 3265.91 710.5C3258.57 706.167 3249.91 704 3239.91 704C3229.91 704 3218.74 707 3206.41 713C3199.07 716.667 3192.74 721.667 3187.41 728C3182.41 734.333 3178.24 741.5 3174.91 749.5C3171.91 757.5 3169.41 765.833 3167.41 774.5C3165.74 783.167 3164.74 791.5 3164.41 799.5C3163.74 808.167 3163.57 817.333 3163.91 827C3164.24 836.333 3165.24 845.833 3166.91 855.5C3168.91 864.833 3171.57 873.833 3174.91 882.5C3178.24 890.833 3182.74 898.333 3188.41 905C3197.07 915 3207.07 922 3218.41 926C3230.07 929.667 3241.57 930.167 3252.91 927.5C3271.24 923.5 3285.24 911.333 3294.91 891C3298.91 883.667 3301.91 875.333 3303.91 866ZM1579.52 1152C1601.85 1143.67 1622.02 1140 1640.02 1141C1658.35 1142 1674.68 1146.67 1689.02 1155C1703.35 1163 1715.52 1173.83 1725.52 1187.5C1735.85 1201.17 1744.18 1216.5 1750.52 1233.5C1755.52 1246.17 1759.35 1259.5 1762.02 1273.5C1764.68 1287.5 1766.18 1301.5 1766.52 1315.5C1767.18 1329.17 1766.68 1342.67 1765.02 1356C1763.68 1369.33 1761.35 1381.67 1758.02 1393C1756.02 1400.67 1753.68 1407.67 1751.02 1414C1748.35 1420.33 1745.18 1426.67 1741.52 1433C1733.18 1447.33 1722.35 1459 1709.02 1468C1696.02 1477 1681.68 1483.33 1666.02 1487C1655.35 1489.67 1644.35 1491 1633.02 1491C1621.68 1490.67 1610.52 1489.17 1599.52 1486.5C1588.52 1483.5 1577.85 1479.33 1567.52 1474C1557.52 1468.33 1548.35 1461.33 1540.02 1453C1529.68 1443 1521.18 1431.5 1514.52 1418.5C1507.85 1405.17 1502.68 1391.33 1499.02 1377C1495.35 1362.33 1493.02 1347.67 1492.02 1333C1491.02 1318.33 1491.02 1304.33 1492.02 1291C1493.02 1278.67 1495.35 1265.5 1499.02 1251.5C1503.02 1237.5 1508.68 1224 1516.02 1211C1523.35 1198 1532.18 1186.33 1542.52 1176C1553.18 1165.33 1565.52 1157.33 1579.52 1152ZM1696.52 1366C1700.52 1350.33 1702.18 1332.67 1701.52 1313C1700.85 1293.33 1697.68 1274.83 1692.02 1257.5C1688.35 1246.83 1683.68 1237.5 1678.02 1229.5C1672.68 1221.17 1666.18 1214.83 1658.52 1210.5C1651.18 1206.17 1642.52 1204 1632.52 1204C1622.52 1204 1611.35 1207 1599.02 1213C1591.68 1216.67 1585.35 1221.67 1580.02 1228C1575.02 1234.33 1570.85 1241.5 1567.52 1249.5C1564.52 1257.5 1562.02 1265.83 1560.02 1274.5C1558.35 1283.17 1557.35 1291.5 1557.02 1299.5C1556.35 1308.17 1556.18 1317.33 1556.52 1327C1556.85 1336.33 1557.85 1345.83 1559.52 1355.5C1561.52 1364.83 1564.18 1373.83 1567.52 1382.5C1570.85 1390.83 1575.35 1398.33 1581.02 1405C1589.68 1415 1599.68 1422 1611.02 1426C1622.68 1429.67 1634.18 1430.17 1645.52 1427.5C1663.85 1423.5 1677.85 1411.33 1687.52 1391C1691.52 1383.67 1694.52 1375.33 1696.52 1366ZM2065.52 1472C2065.86 1475.33 2065.52 1478.5 2064.52 1481.5C2063.86 1483.5 2062.86 1485.17 2061.52 1486.5C2060.52 1487.83 2059.19 1489.17 2057.52 1490.5C2054.52 1492.5 2050.86 1494.33 2046.52 1496C2043.86 1496.67 2041.19 1497.17 2038.52 1497.5C2036.19 1498.17 2033.69 1498.17 2031.02 1497.5C2025.69 1497.17 2021.02 1495.17 2017.02 1491.5C2011.36 1486.83 2006.69 1481.67 2003.02 1476C2001.36 1473.33 1999.52 1470.33 1997.52 1467C1995.52 1463.67 1993.69 1460.17 1992.02 1456.5L1936.52 1351C1933.86 1351 1931.19 1351.17 1928.52 1351.5C1925.86 1351.5 1923.19 1351.67 1920.52 1352C1913.52 1352.67 1906.86 1352.83 1900.52 1352.5C1894.52 1352.17 1888.19 1352.17 1881.52 1352.5H1872.02V1443C1872.02 1445.67 1871.86 1448.17 1871.52 1450.5C1871.52 1452.83 1871.52 1455.33 1871.52 1458C1871.52 1459.67 1871.36 1461.83 1871.02 1464.5C1871.02 1467.17 1870.86 1469.67 1870.52 1472C1869.86 1475.67 1868.36 1479.5 1866.02 1483.5C1863.69 1487.17 1860.52 1490.33 1856.52 1493C1849.52 1497.33 1841.02 1498.5 1831.02 1496.5C1826.69 1495.5 1822.52 1493.83 1818.52 1491.5C1817.19 1490.5 1816.02 1489.33 1815.02 1488C1814.02 1486.33 1813.19 1484.67 1812.52 1483C1811.86 1481.33 1811.19 1479.67 1810.52 1478C1810.19 1476 1809.69 1474.17 1809.02 1472.5C1808.02 1469.17 1807.52 1466 1807.52 1463V1179C1807.52 1177 1807.52 1175 1807.52 1173C1807.86 1170.67 1808.19 1168.67 1808.52 1167C1808.86 1163.33 1810.02 1159.67 1812.02 1156C1813.02 1152 1814.69 1149.17 1817.02 1147.5C1819.02 1145.5 1822.02 1143.83 1826.02 1142.5C1830.36 1140.83 1836.52 1140.17 1844.52 1140.5C1859.52 1140.83 1874.36 1141 1889.02 1141C1903.69 1141 1918.36 1141.33 1933.02 1142C1942.69 1142.67 1952.86 1143.83 1963.52 1145.5C1974.52 1146.83 1984.69 1149.33 1994.02 1153C2000.02 1155.33 2005.52 1157.67 2010.52 1160C2016.86 1163.67 2021.86 1167.17 2025.52 1170.5C2037.19 1181.17 2046.02 1194 2052.02 1209C2058.02 1224 2061.02 1239.17 2061.02 1254.5C2061.02 1272.5 2056.69 1289 2048.02 1304C2039.69 1319 2026.19 1330.17 2007.52 1337.5C2006.86 1338.17 2005.86 1338.67 2004.52 1339C2003.52 1339 2002.69 1339.17 2002.02 1339.5L2048.02 1432L2052.52 1440C2053.19 1441.33 2054.02 1442.83 2055.02 1444.5C2056.02 1446.17 2056.86 1447.83 2057.52 1449.5C2058.52 1451.17 2059.36 1453 2060.02 1455C2061.02 1457 2062.02 1458.83 2063.02 1460.5C2064.02 1465.17 2064.86 1469 2065.52 1472ZM1940.52 1294C1946.52 1294 1952.19 1293 1957.52 1291C1963.19 1288.67 1968.19 1285.67 1972.52 1282C1977.19 1278.33 1981.02 1274.17 1984.02 1269.5C1987.02 1264.5 1988.69 1259.17 1989.02 1253.5C1990.36 1236.83 1986.02 1224.5 1976.02 1216.5C1966.02 1208.17 1952.86 1203.67 1936.52 1203C1926.86 1202.33 1916.19 1202 1904.52 1202C1893.19 1202 1882.36 1202 1872.02 1202C1872.36 1215.67 1872.36 1229.67 1872.02 1244C1872.02 1258 1872.02 1274.67 1872.02 1294H1940.52ZM2714.39 1152C2736.73 1143.67 2756.89 1140 2774.89 1141C2793.23 1142 2809.56 1146.67 2823.89 1155C2838.23 1163 2850.39 1173.83 2860.39 1187.5C2870.73 1201.17 2879.06 1216.5 2885.39 1233.5C2890.39 1246.17 2894.23 1259.5 2896.89 1273.5C2899.56 1287.5 2901.06 1301.5 2901.39 1315.5C2902.06 1329.17 2901.56 1342.67 2899.89 1356C2898.56 1369.33 2896.23 1381.67 2892.89 1393C2890.89 1400.67 2888.56 1407.67 2885.89 1414C2883.23 1420.33 2880.06 1426.67 2876.39 1433C2868.06 1447.33 2857.23 1459 2843.89 1468C2830.89 1477 2816.56 1483.33 2800.89 1487C2790.23 1489.67 2779.23 1491 2767.89 1491C2756.56 1490.67 2745.39 1489.17 2734.39 1486.5C2723.39 1483.5 2712.73 1479.33 2702.39 1474C2692.39 1468.33 2683.23 1461.33 2674.89 1453C2664.56 1443 2656.06 1431.5 2649.39 1418.5C2642.73 1405.17 2637.56 1391.33 2633.89 1377C2630.23 1362.33 2627.89 1347.67 2626.89 1333C2625.89 1318.33 2625.89 1304.33 2626.89 1291C2627.89 1278.67 2630.23 1265.5 2633.89 1251.5C2637.89 1237.5 2643.56 1224 2650.89 1211C2658.23 1198 2667.06 1186.33 2677.39 1176C2688.06 1165.33 2700.39 1157.33 2714.39 1152ZM2831.39 1366C2835.39 1350.33 2837.06 1332.67 2836.39 1313C2835.73 1293.33 2832.56 1274.83 2826.89 1257.5C2823.23 1246.83 2818.56 1237.5 2812.89 1229.5C2807.56 1221.17 2801.06 1214.83 2793.39 1210.5C2786.06 1206.17 2777.39 1204 2767.39 1204C2757.39 1204 2746.23 1207 2733.89 1213C2726.56 1216.67 2720.23 1221.67 2714.89 1228C2709.89 1234.33 2705.73 1241.5 2702.39 1249.5C2699.39 1257.5 2696.89 1265.83 2694.89 1274.5C2693.23 1283.17 2692.23 1291.5 2691.89 1299.5C2691.23 1308.17 2691.06 1317.33 2691.39 1327C2691.73 1336.33 2692.73 1345.83 2694.39 1355.5C2696.39 1364.83 2699.06 1373.83 2702.39 1382.5C2705.73 1390.83 2710.23 1398.33 2715.89 1405C2724.56 1415 2734.56 1422 2745.89 1426C2757.56 1429.67 2769.06 1430.17 2780.39 1427.5C2798.73 1423.5 2812.73 1411.33 2822.39 1391C2826.39 1383.67 2829.39 1375.33 2831.39 1366ZM2964.9 1125.5C2967.57 1121.17 2971.23 1118 2975.9 1116C2980.57 1114 2985.07 1113 2989.4 1113C2993.07 1113 2996.57 1113.17 2999.9 1113.5C3003.57 1113.5 3007.07 1113.83 3010.4 1114.5C3017.4 1116.5 3022.4 1121 3025.4 1128C3028.4 1134.67 3030.23 1142.5 3030.9 1151.5C3031.9 1160.17 3032.07 1168.83 3031.4 1177.5C3031.07 1186.17 3030.9 1193.17 3030.9 1198.5V1346C3030.9 1352.67 3030.9 1359.33 3030.9 1366C3030.9 1372.67 3029.73 1379 3027.4 1385C3025.07 1390.67 3020.73 1394.83 3014.4 1397.5C3008.07 1400.17 3001.4 1401.5 2994.4 1401.5C2987.4 1401.17 2980.73 1399.67 2974.4 1397C2968.07 1394 2963.73 1389.83 2961.4 1384.5C2960.4 1381.5 2959.57 1377.83 2958.9 1373.5C2958.57 1368.83 2958.23 1364.67 2957.9 1361C2957.57 1355.33 2957.4 1349.5 2957.4 1343.5C2957.73 1337.17 2957.9 1330.83 2957.9 1324.5V1157C2957.9 1153 2958.4 1147.83 2959.4 1141.5C2960.4 1135.17 2962.23 1129.83 2964.9 1125.5ZM3022.4 1447C3023.4 1448.67 3024.23 1450.33 3024.9 1452C3025.9 1453.33 3026.73 1455 3027.4 1457C3028.4 1460.67 3029.07 1464.5 3029.4 1468.5C3029.73 1472.5 3029.4 1476.5 3028.4 1480.5C3027.4 1484.17 3025.73 1487.67 3023.4 1491C3021.07 1494.33 3017.9 1496.83 3013.9 1498.5C3010.23 1500.17 3005.9 1501.17 3000.9 1501.5C2995.9 1501.83 2991.07 1501.5 2986.4 1500.5C2981.73 1499.5 2977.4 1497.67 2973.4 1495C2969.4 1492.33 2966.57 1488.83 2964.9 1484.5C2963.23 1479.83 2962.23 1474.5 2961.9 1468.5C2961.9 1462.17 2962.73 1456.67 2964.4 1452C2966.4 1447 2969.57 1443.67 2973.9 1442C2978.23 1440 2982.9 1439 2987.9 1439C2994.23 1438.67 3000.4 1438.83 3006.4 1439.5C3012.73 1440.17 3018.07 1442.67 3022.4 1447ZM3112.46 1125.5C3115.13 1121.17 3118.79 1118 3123.46 1116C3128.13 1114 3132.63 1113 3136.96 1113C3140.63 1113 3144.13 1113.17 3147.46 1113.5C3151.13 1113.5 3154.63 1113.83 3157.96 1114.5C3164.96 1116.5 3169.96 1121 3172.96 1128C3175.96 1134.67 3177.79 1142.5 3178.46 1151.5C3179.46 1160.17 3179.63 1168.83 3178.96 1177.5C3178.63 1186.17 3178.46 1193.17 3178.46 1198.5V1346C3178.46 1352.67 3178.46 1359.33 3178.46 1366C3178.46 1372.67 3177.29 1379 3174.96 1385C3172.63 1390.67 3168.29 1394.83 3161.96 1397.5C3155.63 1400.17 3148.96 1401.5 3141.96 1401.5C3134.96 1401.17 3128.29 1399.67 3121.96 1397C3115.63 1394 3111.29 1389.83 3108.96 1384.5C3107.96 1381.5 3107.13 1377.83 3106.46 1373.5C3106.13 1368.83 3105.79 1364.67 3105.46 1361C3105.13 1355.33 3104.96 1349.5 3104.96 1343.5C3105.29 1337.17 3105.46 1330.83 3105.46 1324.5V1157C3105.46 1153 3105.96 1147.83 3106.96 1141.5C3107.96 1135.17 3109.79 1129.83 3112.46 1125.5ZM3169.96 1447C3170.96 1448.67 3171.79 1450.33 3172.46 1452C3173.46 1453.33 3174.29 1455 3174.96 1457C3175.96 1460.67 3176.63 1464.5 3176.96 1468.5C3177.29 1472.5 3176.96 1476.5 3175.96 1480.5C3174.96 1484.17 3173.29 1487.67 3170.96 1491C3168.63 1494.33 3165.46 1496.83 3161.46 1498.5C3157.79 1500.17 3153.46 1501.17 3148.46 1501.5C3143.46 1501.83 3138.63 1501.5 3133.96 1500.5C3129.29 1499.5 3124.96 1497.67 3120.96 1495C3116.96 1492.33 3114.13 1488.83 3112.46 1484.5C3110.79 1479.83 3109.79 1474.5 3109.46 1468.5C3109.46 1462.17 3110.29 1456.67 3111.96 1452C3113.96 1447 3117.13 1443.67 3121.46 1442C3125.79 1440 3130.46 1439 3135.46 1439C3141.79 1438.67 3147.96 1438.83 3153.96 1439.5C3160.29 1440.17 3165.63 1442.67 3169.96 1447ZM3260.02 1125.5C3262.69 1121.17 3266.36 1118 3271.02 1116C3275.69 1114 3280.19 1113 3284.52 1113C3288.19 1113 3291.69 1113.17 3295.02 1113.5C3298.69 1113.5 3302.19 1113.83 3305.52 1114.5C3312.52 1116.5 3317.52 1121 3320.52 1128C3323.52 1134.67 3325.36 1142.5 3326.02 1151.5C3327.02 1160.17 3327.19 1168.83 3326.52 1177.5C3326.19 1186.17 3326.02 1193.17 3326.02 1198.5V1346C3326.02 1352.67 3326.02 1359.33 3326.02 1366C3326.02 1372.67 3324.86 1379 3322.52 1385C3320.19 1390.67 3315.86 1394.83 3309.52 1397.5C3303.19 1400.17 3296.52 1401.5 3289.52 1401.5C3282.52 1401.17 3275.86 1399.67 3269.52 1397C3263.19 1394 3258.86 1389.83 3256.52 1384.5C3255.52 1381.5 3254.69 1377.83 3254.02 1373.5C3253.69 1368.83 3253.36 1364.67 3253.02 1361C3252.69 1355.33 3252.52 1349.5 3252.52 1343.5C3252.86 1337.17 3253.02 1330.83 3253.02 1324.5V1157C3253.02 1153 3253.52 1147.83 3254.52 1141.5C3255.52 1135.17 3257.36 1129.83 3260.02 1125.5ZM3317.52 1447C3318.52 1448.67 3319.36 1450.33 3320.02 1452C3321.02 1453.33 3321.86 1455 3322.52 1457C3323.52 1460.67 3324.19 1464.5 3324.52 1468.5C3324.86 1472.5 3324.52 1476.5 3323.52 1480.5C3322.52 1484.17 3320.86 1487.67 3318.52 1491C3316.19 1494.33 3313.02 1496.83 3309.02 1498.5C3305.36 1500.17 3301.02 1501.17 3296.02 1501.5C3291.02 1501.83 3286.19 1501.5 3281.52 1500.5C3276.86 1499.5 3272.52 1497.67 3268.52 1495C3264.52 1492.33 3261.69 1488.83 3260.02 1484.5C3258.36 1479.83 3257.36 1474.5 3257.02 1468.5C3257.02 1462.17 3257.86 1456.67 3259.52 1452C3261.52 1447 3264.69 1443.67 3269.02 1442C3273.36 1440 3278.02 1439 3283.02 1439C3289.36 1438.67 3295.52 1438.83 3301.52 1439.5C3307.86 1440.17 3313.19 1442.67 3317.52 1447Z" fill="#2F7C31"/>
<g clip-path="url(#clip0_802_994)">
<path d="M1846.32 509.18C1796.54 485.364 1776.54 434.425 1776.13 401.315C1775.71 367.464 1780.49 354.689 1780.9 347.367C1782.86 313.659 1763.57 277.366 1762.13 229.575C1760.5 175.197 1789.17 119.619 1825.99 97.2326C1859.58 76.8233 1911.82 66.7458 1973.84 115.68C2035.85 164.614 2037.73 409.777 2020.72 441.286C2003.7 472.795 1921.55 545.183 1846.32 509.18Z" fill="#B8885A"/>
<path d="M1952.15 301.54C1951.38 320.255 1968.63 402.789 1930.57 462.301C1892.51 521.812 1859.31 514.318 1859.31 514.318C1859.31 514.318 1912.61 534.895 1966.38 510.6C2027.21 483.109 2044.92 425.472 2050.69 409.029C2059.26 384.637 2061.49 359.849 2063.32 334.774C2065.14 309.7 2075.56 222.943 2043.12 166.636C2007.34 104.507 1960.04 85.3378 1919.8 81.0102C1877.21 76.4336 1855.81 84.2202 1855.81 84.2202C1855.81 84.2202 1933.77 112.27 1954.13 165.71C1983.01 241.52 1952.91 282.825 1952.15 301.54Z" fill="#875B52"/>
<path d="M1996.27 358.565C1999.92 360.54 2007.76 347.025 2012.16 336.43C2016.83 325.22 2021.84 316.664 2018.98 312.965C2016.11 309.265 1993.59 316.985 1988.43 326.471C1985.23 332.425 1990.94 355.688 1996.27 358.565Z" fill="#513531"/>
<path d="M2045.34 293.292C2049.28 292.959 2050.15 282.167 2048.25 276.863C2046.36 271.558 2041.22 263.748 2037.96 265.508C2034.7 267.268 2029.97 275.102 2032.11 281.7C2034.3 288.285 2041.4 293.626 2045.34 293.292Z" fill="#513531"/>
<path d="M1928.55 97.3714C1921.19 97.3294 1930.41 110.884 1934.66 113.835C1938.91 116.785 1943.63 114.851 1946.78 111.436C1949.87 108.064 1952.21 97.5143 1928.55 97.3714Z" fill="#513531"/>
<path d="M1962.35 476.995C1964.94 482.157 1970.6 479.693 1976.06 477.033C1980.38 474.936 1986.7 467.213 1985.24 464.045C1983.8 460.847 1978.43 462.142 1969.59 465.4C1963.57 467.642 1959.75 471.833 1962.35 476.995Z" fill="#513531"/>
<path d="M1877.07 472.673C1877.26 477.875 1889.92 481.47 1892.31 482.23C1894.7 482.989 1904.43 468.633 1902.57 464.485C1900.71 460.338 1893.25 462.154 1888.03 463.458C1882.84 464.779 1876.89 467.471 1877.07 472.673Z" fill="#875B52"/>
<path d="M1867.92 430.858C1876.57 429.853 1874.57 417.271 1870.13 412.738C1865.35 407.876 1858.62 410.66 1858.51 418.37C1858.38 424.524 1862.89 431.464 1867.92 430.858Z" fill="#875B52"/>
<path d="M1792.18 303.652C1786.21 308.161 1789.77 313.427 1793.42 318.698C1797.06 323.969 1801.79 336.699 1805.8 332.951C1809.81 329.202 1815.69 318.204 1813.23 313.08C1810.74 307.94 1798.19 299.161 1792.18 303.652Z" fill="#875B52"/>
<path d="M1854.06 480.378C1860.82 475.531 1853.86 457.369 1850.38 448.857C1845.26 436.335 1839.82 418.849 1840.37 385.996C1841.15 340.943 1867.14 309.233 1863.36 282.497C1859.58 255.761 1836.86 227.764 1830.76 205.402C1819.61 164.529 1853.27 149.623 1842.73 138.285C1832.2 126.947 1810.17 138.794 1796.96 160.566C1783.8 182.325 1776.24 211.768 1797.01 255.36C1817.79 298.951 1824.93 310.994 1818.42 335.741C1811.93 360.505 1804.35 391.564 1815.46 432.696C1821.64 455.556 1842.79 488.465 1854.06 480.378Z" fill="#D9AC82"/>
<path d="M1853.67 192.222C1863.44 196.413 1876.28 186.31 1881.05 178.664C1885.53 171.493 1884.26 163.592 1879.68 160.929C1874.21 157.72 1866.03 165.531 1862.45 168.366C1855.48 173.939 1848.8 172.151 1846.75 180.069C1844.92 187.26 1852.19 191.563 1853.67 192.222Z" fill="#875B52"/>
</g>
<g clip-path="url(#clip1_802_994)">
<path d="M3164.32 1003.18C3114.54 979.364 3094.54 928.425 3094.13 895.315C3093.71 861.464 3098.49 848.689 3098.9 841.367C3100.86 807.659 3081.57 771.366 3080.13 723.575C3078.5 669.197 3107.17 613.619 3143.99 591.233C3177.58 570.823 3229.82 560.746 3291.84 609.68C3353.85 658.614 3355.73 903.777 3338.72 935.286C3321.7 966.795 3239.55 1039.18 3164.32 1003.18Z" fill="#B8885A"/>
<path d="M3270.15 795.54C3269.38 814.255 3286.63 896.789 3248.57 956.301C3210.51 1015.81 3177.31 1008.32 3177.31 1008.32C3177.31 1008.32 3230.61 1028.89 3284.38 1004.6C3345.21 977.109 3362.92 919.472 3368.69 903.029C3377.26 878.637 3379.49 853.849 3381.32 828.774C3383.14 803.7 3393.56 716.943 3361.12 660.636C3325.34 598.507 3278.04 579.338 3237.8 575.01C3195.21 570.434 3173.81 578.22 3173.81 578.22C3173.81 578.22 3251.77 606.27 3272.13 659.71C3301.01 735.52 3270.91 776.825 3270.15 795.54Z" fill="#875B52"/>
<path d="M3314.27 852.565C3317.92 854.54 3325.76 841.025 3330.16 830.43C3334.83 819.22 3339.84 810.664 3336.98 806.965C3334.11 803.265 3311.59 810.985 3306.43 820.471C3303.23 826.425 3308.94 849.688 3314.27 852.565Z" fill="#513531"/>
<path d="M3363.34 787.292C3367.28 786.959 3368.15 776.167 3366.25 770.863C3364.36 765.558 3359.22 757.748 3355.96 759.508C3352.7 761.268 3347.97 769.102 3350.11 775.7C3352.3 782.285 3359.4 787.626 3363.34 787.292Z" fill="#513531"/>
<path d="M3246.55 591.371C3239.19 591.329 3248.41 604.884 3252.66 607.835C3256.91 610.785 3261.63 608.851 3264.78 605.436C3267.87 602.064 3270.21 591.514 3246.55 591.371Z" fill="#513531"/>
<path d="M3280.35 970.995C3282.94 976.157 3288.6 973.693 3294.06 971.033C3298.38 968.936 3304.7 961.213 3303.24 958.045C3301.8 954.847 3296.43 956.142 3287.59 959.4C3281.57 961.642 3277.75 965.833 3280.35 970.995Z" fill="#513531"/>
<path d="M3195.07 966.673C3195.26 971.875 3207.92 975.47 3210.31 976.23C3212.7 976.989 3222.43 962.633 3220.57 958.485C3218.71 954.338 3211.25 956.154 3206.03 957.458C3200.84 958.779 3194.89 961.471 3195.07 966.673Z" fill="#875B52"/>
<path d="M3185.92 924.858C3194.57 923.853 3192.57 911.271 3188.13 906.738C3183.35 901.876 3176.62 904.66 3176.51 912.37C3176.38 918.524 3180.89 925.464 3185.92 924.858Z" fill="#875B52"/>
<path d="M3110.18 797.652C3104.21 802.161 3107.77 807.427 3111.42 812.698C3115.06 817.969 3119.79 830.699 3123.8 826.951C3127.81 823.202 3133.69 812.204 3131.23 807.08C3128.74 801.94 3116.19 793.161 3110.18 797.652Z" fill="#875B52"/>
<path d="M3172.06 974.378C3178.82 969.531 3171.86 951.369 3168.38 942.857C3163.26 930.335 3157.82 912.849 3158.37 879.996C3159.15 834.943 3185.14 803.233 3181.36 776.497C3177.58 749.761 3154.86 721.764 3148.76 699.402C3137.61 658.529 3171.27 643.623 3160.73 632.285C3150.2 620.947 3128.17 632.794 3114.96 654.566C3101.8 676.325 3094.24 705.768 3115.01 749.36C3135.79 792.951 3142.93 804.994 3136.42 829.741C3129.93 854.505 3122.35 885.564 3133.46 926.696C3139.64 949.556 3160.79 982.465 3172.06 974.378Z" fill="#D9AC82"/>
<path d="M3171.67 686.222C3181.44 690.413 3194.28 680.31 3199.05 672.664C3203.53 665.493 3202.26 657.592 3197.68 654.929C3192.21 651.72 3184.03 659.531 3180.45 662.366C3173.48 667.939 3166.8 666.151 3164.75 674.069C3162.92 681.26 3170.19 685.563 3171.67 686.222Z" fill="#875B52"/>
</g>
<g clip-path="url(#clip2_802_994)">
<path d="M2174.57 1270.4L2175.37 1336.4C2175.37 1336.4 2175.75 1356.36 2188.1 1366.04C2201.92 1376.82 2209.63 1371.7 2209.63 1371.7C2209.63 1371.7 2217.73 1382.28 2231.09 1385.86C2244.46 1389.44 2250.8 1391.12 2278.43 1379.21C2306.06 1367.29 2352.13 1341.3 2352.13 1341.3L2395.44 1372.08C2395.44 1372.08 2406.36 1379.51 2422.85 1374.32C2439.34 1369.13 2447.79 1359.79 2447.79 1359.79C2447.79 1359.79 2464.45 1369.37 2484.49 1359.12C2501.83 1350.26 2507.36 1333.29 2507.36 1333.29C2507.36 1333.29 2525.81 1330.43 2538.62 1313.69C2553.5 1294.28 2548.34 1279.64 2548.34 1279.64C2548.34 1279.64 2562.01 1265.51 2560.07 1243.2C2558.14 1220.89 2537.64 1210.88 2537.64 1210.88C2537.64 1210.88 2535.63 1190.76 2521.03 1178.3C2507.83 1167.01 2498.8 1166.97 2498.8 1166.97L2448.95 1171.67C2448.95 1171.67 2457.77 1154.96 2442.88 1127.59C2427.99 1100.21 2406.34 1098.46 2406.34 1098.46C2406.34 1098.46 2399.9 1081.36 2382.23 1076.15C2365.26 1071.13 2359.19 1085.53 2349.8 1084.76C2338.23 1083.82 2299.09 1110.02 2299.09 1110.02L2286.23 1178.71L2174.57 1270.4Z" fill="#2F7C31"/>
<path d="M2156.86 1218.38C2156.86 1218.38 2157.98 1194.57 2175.58 1181.81C2193.18 1169.05 2204.51 1176.43 2204.51 1176.43C2204.51 1176.43 2213.31 1166.22 2222.06 1163.67C2239.99 1158.46 2244.23 1166.33 2247.81 1162.55C2251.39 1158.77 2237.43 1142.13 2251.05 1120.82C2264.67 1099.52 2282.1 1099.89 2285.86 1096.33C2289.62 1092.76 2290.64 1084 2308.38 1076.65C2324.36 1070.05 2334 1076.06 2336.7 1078.09C2339.94 1080.57 2342.81 1083.99 2349.84 1084.77C2356.88 1085.54 2364.79 1103.12 2364.26 1113.4C2363.72 1123.68 2353.75 1133.08 2353.75 1133.08C2353.75 1133.08 2372.95 1150.98 2365.37 1176.02C2360.04 1193.62 2344.8 1201.24 2344.8 1201.24C2344.8 1201.24 2340.98 1224.19 2321.7 1232.09C2302.43 1239.99 2295.57 1235.13 2298.16 1221.12C2300.76 1207.13 2293.24 1190.57 2281.06 1196.45C2268.88 1202.33 2262.67 1215.81 2268.29 1229.62C2273.91 1243.43 2281.61 1253.11 2276.94 1270.8C2272.26 1288.49 2261.73 1293.03 2252.8 1305.64C2243.87 1318.26 2244.31 1334.44 2234.91 1342.7C2225.53 1350.98 2212.21 1350.32 2207.88 1355.14C2203.55 1359.96 2195.45 1370.69 2195.45 1370.69C2195.45 1370.69 2184.02 1366.11 2178.3 1353.57C2172.59 1341.03 2175.38 1336.35 2175.38 1336.35C2175.38 1336.35 2134.31 1333.68 2127.36 1282.88C2121.08 1236.97 2156.86 1218.38 2156.86 1218.38Z" fill="#709921"/>
<path d="M2413.33 1268.64C2413.33 1268.64 2419.1 1257.49 2416.63 1242.64C2414.13 1227.81 2410.95 1217.85 2416.24 1205.14C2421.5 1192.44 2432.42 1184.06 2446.57 1173.37C2460.73 1162.69 2467.59 1163.9 2473.68 1164.4C2485.65 1165.38 2498.89 1166.88 2498.89 1166.88C2498.89 1166.88 2488.21 1177.41 2489.9 1191.77C2491.58 1206.13 2498.49 1221.97 2498.49 1221.97C2498.49 1221.97 2492.84 1231.83 2488.06 1243.71C2483.28 1255.59 2474.41 1283.94 2459.06 1291.28C2443.71 1298.63 2425.15 1289.78 2423.79 1288.17C2422.44 1286.61 2413.33 1268.64 2413.33 1268.64Z" fill="#709921"/>
<path d="M2322.78 1379.86C2323.65 1382.08 2319.6 1500.92 2319.6 1500.92C2319.6 1500.92 2336.14 1505.77 2346.96 1505.58C2357.79 1505.39 2374.78 1504.4 2382.91 1500.61C2391.72 1496.5 2399.05 1493.96 2398.45 1480.16C2397.85 1466.36 2393.59 1451.21 2395.61 1417.91C2397.64 1384.62 2400.75 1362.79 2409.19 1344.36C2417.63 1325.92 2433.97 1304.35 2438.76 1299.34C2443.55 1294.34 2449.78 1288.13 2449.78 1288.13C2449.78 1288.13 2447.11 1276.89 2440.5 1271.74C2433.15 1265.98 2420.6 1271.18 2420.6 1271.18L2376.34 1320.66L2380.64 1313.69C2380.64 1313.69 2375.4 1312.23 2374.8 1305.15C2374.28 1298.99 2374.22 1273.54 2373.71 1264.59C2373.2 1255.63 2372.58 1237.96 2370.96 1236.37C2368.01 1233.44 2356.98 1235.76 2353.44 1236.28C2349.89 1236.8 2343.21 1238.96 2343.21 1238.96L2335.7 1339.39L2330.6 1339.25C2330.6 1339.25 2326.96 1342.02 2320.41 1338.41C2315.8 1335.88 2305.74 1325.07 2296.31 1316.22C2290.42 1310.67 2283.97 1303.87 2283.97 1303.87C2283.97 1303.87 2272.33 1307.24 2267.25 1312.49C2262.16 1317.74 2260.85 1329.22 2260.85 1329.22L2322.78 1379.86Z" fill="#9FB525"/>
<path d="M2253.21 1338.58C2254.27 1341.62 2264.48 1350.83 2276.13 1364.71C2287.77 1378.58 2297.76 1392.12 2297.9 1406.11C2298.1 1424.17 2295.8 1451.76 2292.88 1471.45C2291.62 1479.97 2289.79 1484.41 2290.47 1485.81C2291.15 1487.21 2302.39 1495.72 2308.47 1498.33C2319.47 1503.03 2333.29 1504.1 2333.29 1504.1C2333.29 1504.1 2335.32 1444.73 2337.27 1420.89C2339.23 1397.04 2338.95 1382.48 2344.33 1382.92C2349.67 1383.36 2349.43 1402.78 2349.03 1416.47C2348.45 1437.16 2355.22 1505.2 2355.22 1505.2C2355.22 1505.2 2358.27 1505.51 2363.45 1504.98C2368.04 1504.52 2371.2 1503.64 2371.2 1503.64C2371.2 1503.64 2365.76 1465.55 2368.48 1424.78C2371.2 1384.02 2374.74 1363.3 2385.54 1345.84C2396.33 1328.39 2440.47 1271.64 2440.47 1271.64C2440.47 1271.64 2431.33 1265.5 2426.97 1263.26C2422.6 1261.02 2415.96 1259.67 2415.96 1259.67C2415.96 1259.67 2394.87 1289.21 2391.39 1294.59C2387.9 1299.97 2363.96 1325.51 2360.35 1323.58C2356.76 1321.68 2356.1 1282.27 2355.6 1270.36C2355.09 1258.45 2353.5 1236.1 2353.5 1236.1C2353.5 1236.1 2344.15 1237.06 2335.38 1241.47C2326.61 1245.88 2325.19 1249.53 2325.19 1249.53C2325.19 1249.53 2327.26 1288.24 2327.81 1299.62C2328.37 1311 2330.76 1334.64 2323.57 1345.1C2316.39 1355.55 2312.12 1355.2 2305.1 1349.25C2298.1 1343.28 2267.23 1312.47 2267.23 1312.47C2267.23 1312.47 2258.35 1320.9 2256.28 1325.59C2254.2 1330.28 2252.15 1335.53 2253.21 1338.58Z" fill="#B7D118"/>
<path d="M2473.7 1225.76C2473.7 1225.76 2470.98 1211.45 2479.08 1211.58C2487.21 1211.68 2488.99 1232.03 2487.43 1234.07C2485.88 1236.12 2466.76 1243.76 2464.31 1236.39C2461.9 1228.98 2473.7 1225.76 2473.7 1225.76Z" fill="#2F7C31"/>
<path d="M2250.21 1246.75C2255.65 1241.87 2257.87 1220.66 2247.96 1218.93C2239.96 1217.54 2239.34 1233.79 2239.34 1233.79C2239.34 1233.79 2222.92 1232.2 2223.07 1239.49C2223.37 1249.98 2246.23 1250.35 2250.21 1246.75Z" fill="#2F7C31"/>
<path d="M2228.56 1284.27C2228.56 1284.27 2225.13 1270.3 2234.23 1269.84C2243.36 1269.35 2245.62 1291.75 2243.4 1295.09C2241.19 1298.42 2217.87 1302.74 2216.75 1292.91C2215.9 1284.98 2228.56 1284.27 2228.56 1284.27Z" fill="#2F7C31"/>
<path d="M2178.19 1311.16C2180.19 1309.98 2186.86 1292.5 2178.18 1289.37C2169.51 1286.24 2168.81 1299.98 2168.81 1299.98C2168.81 1299.98 2157.04 1299.73 2157.15 1305.79C2157.34 1315.55 2175.2 1312.93 2178.19 1311.16Z" fill="#2F7C31"/>
<path d="M2197.26 1329.38C2197.26 1329.38 2193.92 1315.83 2201.95 1315.28C2210.01 1314.71 2213.54 1336.54 2212.68 1338.24C2211.85 1339.92 2190.04 1349.82 2188.01 1339.6C2186.67 1332.57 2197.26 1329.38 2197.26 1329.38Z" fill="#2F7C31"/>
<path d="M2343.67 1188.09C2346.14 1183.19 2341.76 1164.82 2333.5 1167.28C2326.84 1169.27 2330.9 1179.3 2330.9 1179.3C2330.9 1179.3 2321.53 1179.13 2321.05 1186.13C2320.32 1196.86 2342.18 1191.06 2343.67 1188.09Z" fill="#2F7C31"/>
<path d="M2328.92 1114.7C2328.92 1114.7 2324.51 1108.81 2329.13 1105.42C2334.23 1101.72 2343.44 1113.98 2341.63 1119.28C2339.81 1124.57 2322.37 1128.39 2321.41 1121.65C2320.8 1117.37 2328.81 1113.93 2328.92 1114.7Z" fill="#2F7C31"/>
</g>
<defs>
<clipPath id="clip0_802_994">
<rect width="445.305" height="420.842" fill="white" transform="translate(1609 380.414) rotate(-58.6802)"/>
</clipPath>
<clipPath id="clip1_802_994">
<rect width="445.305" height="420.842" fill="white" transform="translate(2927 874.414) rotate(-58.6802)"/>
</clipPath>
<clipPath id="clip2_802_994">
<rect width="406.347" height="401.812" fill="white" transform="translate(2071.72 1255.19) rotate(-40)"/>
</clipPath>
</defs>
</svg>
